<?xml version="1.0" encoding="UTF-8" standalone="no"?>
<!-- Uploaded to: SVG Repo, www.svgrepo.com, Generator: SVG Repo Mixer Tools -->

<svg
   width="266.67206"
   height="425"
   viewBox="0 0 16.000323 25.5"
   fill="none"
   version="1.1"
   id="svg2"
   sodipodi:docname="childb.svg"
   inkscape:version="1.3.2 (091e20ef0f, 2023-11-25)"
   xmlns:inkscape="http://www.inkscape.org/namespaces/inkscape"
   xmlns:sodipodi="http://sodipodi.sourceforge.net/DTD/sodipodi-0.dtd"
   xmlns="http://www.w3.org/2000/svg"
   xmlns:svg="http://www.w3.org/2000/svg">
  <defs
     id="defs2" />
  <sodipodi:namedview
     id="namedview2"
     pagecolor="#ffffff"
     bordercolor="#000000"
     borderopacity="0.25"
     inkscape:showpageshadow="2"
     inkscape:pageopacity="0.0"
     inkscape:pagecheckerboard="true"
     inkscape:deskcolor="#d1d1d1"
     inkscape:zoom="2.3794143"
     inkscape:cx="361.43348"
     inkscape:cy="280.74136"
     inkscape:window-width="3832"
     inkscape:window-height="2152"
     inkscape:window-x="0"
     inkscape:window-y="0"
     inkscape:window-maximized="0"
     inkscape:current-layer="svg2" />
  <path
     fill-rule="evenodd"
     clip-rule="evenodd"
     d="m 8.0001978,7 c 1.933,0 3.5000002,-1.567 3.5000002,-3.5 0,-1.933 -1.5670002,-3.5 -3.5000002,-3.5 -1.933,0 -3.5,1.567 -3.5,3.5 0,1.933 1.567,3.5 3.5,3.5 z m -2.5,1.5 c -0.5016,0 -0.9699,0.2507 -1.2481,0.6679 l -4.00001995,6 c -0.45952,0.6893 -0.27326,1.6206 0.41603,2.0802 0.68928995,0.4595 1.62059995,0.2732 2.08011995,-0.416 l 1.25197,-1.8779 V 24 c 0,0.8284 0.6715,1.5 1.5,1.5 0.8284,0 1.5,-0.6716 1.5,-1.5 v -5 h 2 v 5 c 0,0.8284 0.6715,1.5 1.5000002,1.5 0.8284,0 1.5,-0.6716 1.5,-1.5 v -9.0458 l 1.2519,1.8779 c 0.4595,0.6892 1.3908,0.8755 2.0801,0.416 0.6893,-0.4596 0.8756,-1.3909 0.416,-2.0802 l -4,-6 C 11.469998,8.7507 11.001698,8.5 10.500198,8.5 Z"
     fill="#333333"
     id="path1"
     style="fill:#ffffff;fill-opacity:1" />
</svg>
