<?xml version="1.0" encoding="utf-8" standalone="no"?>
<!DOCTYPE svg PUBLIC "-//W3C//DTD SVG 1.1//EN"
  "http://www.w3.org/Graphics/SVG/1.1/DTD/svg11.dtd">
<svg xmlns:xlink="http://www.w3.org/1999/xlink" width="734.232031pt" height="646.444077pt" viewBox="0 0 734.232031 646.444077" xmlns="http://www.w3.org/2000/svg" version="1.1">
 <metadata>
  <rdf:RDF xmlns:dc="http://purl.org/dc/elements/1.1/" xmlns:cc="http://creativecommons.org/ns#" xmlns:rdf="http://www.w3.org/1999/02/22-rdf-syntax-ns#">
   <cc:Work>
    <dc:type rdf:resource="http://purl.org/dc/dcmitype/StillImage"/>
    <dc:date>2024-04-05T08:52:28.462129</dc:date>
    <dc:format>image/svg+xml</dc:format>
    <dc:creator>
     <cc:Agent>
      <dc:title>Matplotlib v3.6.3, https://matplotlib.org/</dc:title>
     </cc:Agent>
    </dc:creator>
   </cc:Work>
  </rdf:RDF>
 </metadata>
 <defs>
  <style type="text/css">*{stroke-linejoin: round; stroke-linecap: butt}</style>
 </defs>
 <g id="figure_1">
  <g id="patch_1">
   <path d="M 0 646.444077 
L 734.232031 646.444077 
L 734.232031 0 
L 0 0 
z
" style="fill: #ffffff"/>
  </g>
  <g id="axes_1">
   <g id="patch_2">
    <path d="M 169.032031 433.905882 
L 727.032031 433.905882 
L 727.032031 7.2 
L 169.032031 7.2 
z
" style="fill: #eaeaf2"/>
   </g>
   <g id="matplotlib.axis_1">
    <g id="xtick_1">
     <g id="text_1">
      <!-- DeepSHAP -->
      <g style="fill: #262626" transform="translate(87.910016 550.695526) rotate(-45) scale(0.25 -0.25)">
       <defs>
        <path id="DejaVuSans-44" d="M 1259 4147 
L 1259 519 
L 2022 519 
Q 2988 519 3436 956 
Q 3884 1394 3884 2338 
Q 3884 3275 3436 3711 
Q 2988 4147 2022 4147 
L 1259 4147 
z
M 628 4666 
L 1925 4666 
Q 3281 4666 3915 4102 
Q 4550 3538 4550 2338 
Q 4550 1131 3912 565 
Q 3275 0 1925 0 
L 628 0 
L 628 4666 
z
" transform="scale(0.015625)"/>
        <path id="DejaVuSans-65" d="M 3597 1894 
L 3597 1613 
L 953 1613 
Q 991 1019 1311 708 
Q 1631 397 2203 397 
Q 2534 397 2845 478 
Q 3156 559 3463 722 
L 3463 178 
Q 3153 47 2828 -22 
Q 2503 -91 2169 -91 
Q 1331 -91 842 396 
Q 353 884 353 1716 
Q 353 2575 817 3079 
Q 1281 3584 2069 3584 
Q 2775 3584 3186 3129 
Q 3597 2675 3597 1894 
z
M 3022 2063 
Q 3016 2534 2758 2815 
Q 2500 3097 2075 3097 
Q 1594 3097 1305 2825 
Q 1016 2553 972 2059 
L 3022 2063 
z
" transform="scale(0.015625)"/>
        <path id="DejaVuSans-70" d="M 1159 525 
L 1159 -1331 
L 581 -1331 
L 581 3500 
L 1159 3500 
L 1159 2969 
Q 1341 3281 1617 3432 
Q 1894 3584 2278 3584 
Q 2916 3584 3314 3078 
Q 3713 2572 3713 1747 
Q 3713 922 3314 415 
Q 2916 -91 2278 -91 
Q 1894 -91 1617 61 
Q 1341 213 1159 525 
z
M 3116 1747 
Q 3116 2381 2855 2742 
Q 2594 3103 2138 3103 
Q 1681 3103 1420 2742 
Q 1159 2381 1159 1747 
Q 1159 1113 1420 752 
Q 1681 391 2138 391 
Q 2594 391 2855 752 
Q 3116 1113 3116 1747 
z
" transform="scale(0.015625)"/>
        <path id="DejaVuSans-53" d="M 3425 4513 
L 3425 3897 
Q 3066 4069 2747 4153 
Q 2428 4238 2131 4238 
Q 1616 4238 1336 4038 
Q 1056 3838 1056 3469 
Q 1056 3159 1242 3001 
Q 1428 2844 1947 2747 
L 2328 2669 
Q 3034 2534 3370 2195 
Q 3706 1856 3706 1288 
Q 3706 609 3251 259 
Q 2797 -91 1919 -91 
Q 1588 -91 1214 -16 
Q 841 59 441 206 
L 441 856 
Q 825 641 1194 531 
Q 1563 422 1919 422 
Q 2459 422 2753 634 
Q 3047 847 3047 1241 
Q 3047 1584 2836 1778 
Q 2625 1972 2144 2069 
L 1759 2144 
Q 1053 2284 737 2584 
Q 422 2884 422 3419 
Q 422 4038 858 4394 
Q 1294 4750 2059 4750 
Q 2388 4750 2728 4690 
Q 3069 4631 3425 4513 
z
" transform="scale(0.015625)"/>
        <path id="DejaVuSans-48" d="M 628 4666 
L 1259 4666 
L 1259 2753 
L 3553 2753 
L 3553 4666 
L 4184 4666 
L 4184 0 
L 3553 0 
L 3553 2222 
L 1259 2222 
L 1259 0 
L 628 0 
L 628 4666 
z
" transform="scale(0.015625)"/>
        <path id="DejaVuSans-41" d="M 2188 4044 
L 1331 1722 
L 3047 1722 
L 2188 4044 
z
M 1831 4666 
L 2547 4666 
L 4325 0 
L 3669 0 
L 3244 1197 
L 1141 1197 
L 716 0 
L 50 0 
L 1831 4666 
z
" transform="scale(0.015625)"/>
        <path id="DejaVuSans-50" d="M 1259 4147 
L 1259 2394 
L 2053 2394 
Q 2494 2394 2734 2622 
Q 2975 2850 2975 3272 
Q 2975 3691 2734 3919 
Q 2494 4147 2053 4147 
L 1259 4147 
z
M 628 4666 
L 2053 4666 
Q 2838 4666 3239 4311 
Q 3641 3956 3641 3272 
Q 3641 2581 3239 2228 
Q 2838 1875 2053 1875 
L 1259 1875 
L 1259 0 
L 628 0 
L 628 4666 
z
" transform="scale(0.015625)"/>
       </defs>
       <use xlink:href="#DejaVuSans-44"/>
       <use xlink:href="#DejaVuSans-65" x="77.001953"/>
       <use xlink:href="#DejaVuSans-65" x="138.525391"/>
       <use xlink:href="#DejaVuSans-70" x="200.048828"/>
       <use xlink:href="#DejaVuSans-53" x="263.525391"/>
       <use xlink:href="#DejaVuSans-48" x="327.001953"/>
       <use xlink:href="#DejaVuSans-41" x="402.197266"/>
       <use xlink:href="#DejaVuSans-50" x="470.605469"/>
      </g>
     </g>
    </g>
    <g id="xtick_2">
     <g id="text_2">
      <!-- ExpectedGradients -->
      <g style="fill: #262626" transform="translate(45.957004 625.472068) rotate(-45) scale(0.25 -0.25)">
       <defs>
        <path id="DejaVuSans-45" d="M 628 4666 
L 3578 4666 
L 3578 4134 
L 1259 4134 
L 1259 2753 
L 3481 2753 
L 3481 2222 
L 1259 2222 
L 1259 531 
L 3634 531 
L 3634 0 
L 628 0 
L 628 4666 
z
" transform="scale(0.015625)"/>
        <path id="DejaVuSans-78" d="M 3513 3500 
L 2247 1797 
L 3578 0 
L 2900 0 
L 1881 1375 
L 863 0 
L 184 0 
L 1544 1831 
L 300 3500 
L 978 3500 
L 1906 2253 
L 2834 3500 
L 3513 3500 
z
" transform="scale(0.015625)"/>
        <path id="DejaVuSans-63" d="M 3122 3366 
L 3122 2828 
Q 2878 2963 2633 3030 
Q 2388 3097 2138 3097 
Q 1578 3097 1268 2742 
Q 959 2388 959 1747 
Q 959 1106 1268 751 
Q 1578 397 2138 397 
Q 2388 397 2633 464 
Q 2878 531 3122 666 
L 3122 134 
Q 2881 22 2623 -34 
Q 2366 -91 2075 -91 
Q 1284 -91 818 406 
Q 353 903 353 1747 
Q 353 2603 823 3093 
Q 1294 3584 2113 3584 
Q 2378 3584 2631 3529 
Q 2884 3475 3122 3366 
z
" transform="scale(0.015625)"/>
        <path id="DejaVuSans-74" d="M 1172 4494 
L 1172 3500 
L 2356 3500 
L 2356 3053 
L 1172 3053 
L 1172 1153 
Q 1172 725 1289 603 
Q 1406 481 1766 481 
L 2356 481 
L 2356 0 
L 1766 0 
Q 1100 0 847 248 
Q 594 497 594 1153 
L 594 3053 
L 172 3053 
L 172 3500 
L 594 3500 
L 594 4494 
L 1172 4494 
z
" transform="scale(0.015625)"/>
        <path id="DejaVuSans-64" d="M 2906 2969 
L 2906 4863 
L 3481 4863 
L 3481 0 
L 2906 0 
L 2906 525 
Q 2725 213 2448 61 
Q 2172 -91 1784 -91 
Q 1150 -91 751 415 
Q 353 922 353 1747 
Q 353 2572 751 3078 
Q 1150 3584 1784 3584 
Q 2172 3584 2448 3432 
Q 2725 3281 2906 2969 
z
M 947 1747 
Q 947 1113 1208 752 
Q 1469 391 1925 391 
Q 2381 391 2643 752 
Q 2906 1113 2906 1747 
Q 2906 2381 2643 2742 
Q 2381 3103 1925 3103 
Q 1469 3103 1208 2742 
Q 947 2381 947 1747 
z
" transform="scale(0.015625)"/>
        <path id="DejaVuSans-47" d="M 3809 666 
L 3809 1919 
L 2778 1919 
L 2778 2438 
L 4434 2438 
L 4434 434 
Q 4069 175 3628 42 
Q 3188 -91 2688 -91 
Q 1594 -91 976 548 
Q 359 1188 359 2328 
Q 359 3472 976 4111 
Q 1594 4750 2688 4750 
Q 3144 4750 3555 4637 
Q 3966 4525 4313 4306 
L 4313 3634 
Q 3963 3931 3569 4081 
Q 3175 4231 2741 4231 
Q 1884 4231 1454 3753 
Q 1025 3275 1025 2328 
Q 1025 1384 1454 906 
Q 1884 428 2741 428 
Q 3075 428 3337 486 
Q 3600 544 3809 666 
z
" transform="scale(0.015625)"/>
        <path id="DejaVuSans-72" d="M 2631 2963 
Q 2534 3019 2420 3045 
Q 2306 3072 2169 3072 
Q 1681 3072 1420 2755 
Q 1159 2438 1159 1844 
L 1159 0 
L 581 0 
L 581 3500 
L 1159 3500 
L 1159 2956 
Q 1341 3275 1631 3429 
Q 1922 3584 2338 3584 
Q 2397 3584 2469 3576 
Q 2541 3569 2628 3553 
L 2631 2963 
z
" transform="scale(0.015625)"/>
        <path id="DejaVuSans-61" d="M 2194 1759 
Q 1497 1759 1228 1600 
Q 959 1441 959 1056 
Q 959 750 1161 570 
Q 1363 391 1709 391 
Q 2188 391 2477 730 
Q 2766 1069 2766 1631 
L 2766 1759 
L 2194 1759 
z
M 3341 1997 
L 3341 0 
L 2766 0 
L 2766 531 
Q 2569 213 2275 61 
Q 1981 -91 1556 -91 
Q 1019 -91 701 211 
Q 384 513 384 1019 
Q 384 1609 779 1909 
Q 1175 2209 1959 2209 
L 2766 2209 
L 2766 2266 
Q 2766 2663 2505 2880 
Q 2244 3097 1772 3097 
Q 1472 3097 1187 3025 
Q 903 2953 641 2809 
L 641 3341 
Q 956 3463 1253 3523 
Q 1550 3584 1831 3584 
Q 2591 3584 2966 3190 
Q 3341 2797 3341 1997 
z
" transform="scale(0.015625)"/>
        <path id="DejaVuSans-69" d="M 603 3500 
L 1178 3500 
L 1178 0 
L 603 0 
L 603 3500 
z
M 603 4863 
L 1178 4863 
L 1178 4134 
L 603 4134 
L 603 4863 
z
" transform="scale(0.015625)"/>
        <path id="DejaVuSans-6e" d="M 3513 2113 
L 3513 0 
L 2938 0 
L 2938 2094 
Q 2938 2591 2744 2837 
Q 2550 3084 2163 3084 
Q 1697 3084 1428 2787 
Q 1159 2491 1159 1978 
L 1159 0 
L 581 0 
L 581 3500 
L 1159 3500 
L 1159 2956 
Q 1366 3272 1645 3428 
Q 1925 3584 2291 3584 
Q 2894 3584 3203 3211 
Q 3513 2838 3513 2113 
z
" transform="scale(0.015625)"/>
        <path id="DejaVuSans-73" d="M 2834 3397 
L 2834 2853 
Q 2591 2978 2328 3040 
Q 2066 3103 1784 3103 
Q 1356 3103 1142 2972 
Q 928 2841 928 2578 
Q 928 2378 1081 2264 
Q 1234 2150 1697 2047 
L 1894 2003 
Q 2506 1872 2764 1633 
Q 3022 1394 3022 966 
Q 3022 478 2636 193 
Q 2250 -91 1575 -91 
Q 1294 -91 989 -36 
Q 684 19 347 128 
L 347 722 
Q 666 556 975 473 
Q 1284 391 1588 391 
Q 1994 391 2212 530 
Q 2431 669 2431 922 
Q 2431 1156 2273 1281 
Q 2116 1406 1581 1522 
L 1381 1569 
Q 847 1681 609 1914 
Q 372 2147 372 2553 
Q 372 3047 722 3315 
Q 1072 3584 1716 3584 
Q 2034 3584 2315 3537 
Q 2597 3491 2834 3397 
z
" transform="scale(0.015625)"/>
       </defs>
       <use xlink:href="#DejaVuSans-45"/>
       <use xlink:href="#DejaVuSans-78" x="63.183594"/>
       <use xlink:href="#DejaVuSans-70" x="122.363281"/>
       <use xlink:href="#DejaVuSans-65" x="185.839844"/>
       <use xlink:href="#DejaVuSans-63" x="247.363281"/>
       <use xlink:href="#DejaVuSans-74" x="302.34375"/>
       <use xlink:href="#DejaVuSans-65" x="341.552734"/>
       <use xlink:href="#DejaVuSans-64" x="403.076172"/>
       <use xlink:href="#DejaVuSans-47" x="466.552734"/>
       <use xlink:href="#DejaVuSans-72" x="544.042969"/>
       <use xlink:href="#DejaVuSans-61" x="585.15625"/>
       <use xlink:href="#DejaVuSans-64" x="646.435547"/>
       <use xlink:href="#DejaVuSans-69" x="709.912109"/>
       <use xlink:href="#DejaVuSans-65" x="737.695312"/>
       <use xlink:href="#DejaVuSans-6e" x="799.21875"/>
       <use xlink:href="#DejaVuSans-74" x="862.597656"/>
       <use xlink:href="#DejaVuSans-73" x="901.806641"/>
      </g>
     </g>
    </g>
    <g id="xtick_3">
     <g id="text_3">
      <!-- DeepLIFT -->
      <g style="fill: #262626" transform="translate(165.105565 539.147036) rotate(-45) scale(0.25 -0.25)">
       <defs>
        <path id="DejaVuSans-4c" d="M 628 4666 
L 1259 4666 
L 1259 531 
L 3531 531 
L 3531 0 
L 628 0 
L 628 4666 
z
" transform="scale(0.015625)"/>
        <path id="DejaVuSans-49" d="M 628 4666 
L 1259 4666 
L 1259 0 
L 628 0 
L 628 4666 
z
" transform="scale(0.015625)"/>
        <path id="DejaVuSans-46" d="M 628 4666 
L 3309 4666 
L 3309 4134 
L 1259 4134 
L 1259 2759 
L 3109 2759 
L 3109 2228 
L 1259 2228 
L 1259 0 
L 628 0 
L 628 4666 
z
" transform="scale(0.015625)"/>
        <path id="DejaVuSans-54" d="M -19 4666 
L 3928 4666 
L 3928 4134 
L 2272 4134 
L 2272 0 
L 1638 0 
L 1638 4134 
L -19 4134 
L -19 4666 
z
" transform="scale(0.015625)"/>
       </defs>
       <use xlink:href="#DejaVuSans-44"/>
       <use xlink:href="#DejaVuSans-65" x="77.001953"/>
       <use xlink:href="#DejaVuSans-65" x="138.525391"/>
       <use xlink:href="#DejaVuSans-70" x="200.048828"/>
       <use xlink:href="#DejaVuSans-4c" x="263.525391"/>
       <use xlink:href="#DejaVuSans-49" x="319.238281"/>
       <use xlink:href="#DejaVuSans-46" x="348.730469"/>
       <use xlink:href="#DejaVuSans-54" x="404.5"/>
      </g>
     </g>
    </g>
    <g id="xtick_4">
     <g id="text_4">
      <!-- GradCAM -->
      <g style="fill: #262626" transform="translate(197.528585 539.547545) rotate(-45) scale(0.25 -0.25)">
       <defs>
        <path id="DejaVuSans-43" d="M 4122 4306 
L 4122 3641 
Q 3803 3938 3442 4084 
Q 3081 4231 2675 4231 
Q 1875 4231 1450 3742 
Q 1025 3253 1025 2328 
Q 1025 1406 1450 917 
Q 1875 428 2675 428 
Q 3081 428 3442 575 
Q 3803 722 4122 1019 
L 4122 359 
Q 3791 134 3420 21 
Q 3050 -91 2638 -91 
Q 1578 -91 968 557 
Q 359 1206 359 2328 
Q 359 3453 968 4101 
Q 1578 4750 2638 4750 
Q 3056 4750 3426 4639 
Q 3797 4528 4122 4306 
z
" transform="scale(0.015625)"/>
        <path id="DejaVuSans-4d" d="M 628 4666 
L 1569 4666 
L 2759 1491 
L 3956 4666 
L 4897 4666 
L 4897 0 
L 4281 0 
L 4281 4097 
L 3078 897 
L 2444 897 
L 1241 4097 
L 1241 0 
L 628 0 
L 628 4666 
z
" transform="scale(0.015625)"/>
       </defs>
       <use xlink:href="#DejaVuSans-47"/>
       <use xlink:href="#DejaVuSans-72" x="77.490234"/>
       <use xlink:href="#DejaVuSans-61" x="118.603516"/>
       <use xlink:href="#DejaVuSans-64" x="179.882812"/>
       <use xlink:href="#DejaVuSans-43" x="243.359375"/>
       <use xlink:href="#DejaVuSans-41" x="313.183594"/>
       <use xlink:href="#DejaVuSans-4d" x="381.591797"/>
      </g>
     </g>
    </g>
    <g id="xtick_5">
     <g id="text_5">
      <!-- GradCAM++ -->
      <g style="fill: #262626" transform="translate(200.725445 569.174215) rotate(-45) scale(0.25 -0.25)">
       <defs>
        <path id="DejaVuSans-2b" d="M 2944 4013 
L 2944 2272 
L 4684 2272 
L 4684 1741 
L 2944 1741 
L 2944 0 
L 2419 0 
L 2419 1741 
L 678 1741 
L 678 2272 
L 2419 2272 
L 2419 4013 
L 2944 4013 
z
" transform="scale(0.015625)"/>
       </defs>
       <use xlink:href="#DejaVuSans-47"/>
       <use xlink:href="#DejaVuSans-72" x="77.490234"/>
       <use xlink:href="#DejaVuSans-61" x="118.603516"/>
       <use xlink:href="#DejaVuSans-64" x="179.882812"/>
       <use xlink:href="#DejaVuSans-43" x="243.359375"/>
       <use xlink:href="#DejaVuSans-41" x="313.183594"/>
       <use xlink:href="#DejaVuSans-4d" x="381.591797"/>
       <use xlink:href="#DejaVuSans-2b" x="467.871094"/>
       <use xlink:href="#DejaVuSans-2b" x="551.660156"/>
      </g>
     </g>
    </g>
    <g id="xtick_6">
     <g id="text_6">
      <!-- ScoreCAM -->
      <g style="fill: #262626" transform="translate(256.690149 546.03304) rotate(-45) scale(0.25 -0.25)">
       <defs>
        <path id="DejaVuSans-6f" d="M 1959 3097 
Q 1497 3097 1228 2736 
Q 959 2375 959 1747 
Q 959 1119 1226 758 
Q 1494 397 1959 397 
Q 2419 397 2687 759 
Q 2956 1122 2956 1747 
Q 2956 2369 2687 2733 
Q 2419 3097 1959 3097 
z
M 1959 3584 
Q 2709 3584 3137 3096 
Q 3566 2609 3566 1747 
Q 3566 888 3137 398 
Q 2709 -91 1959 -91 
Q 1206 -91 779 398 
Q 353 888 353 1747 
Q 353 2609 779 3096 
Q 1206 3584 1959 3584 
z
" transform="scale(0.015625)"/>
       </defs>
       <use xlink:href="#DejaVuSans-53"/>
       <use xlink:href="#DejaVuSans-63" x="63.476562"/>
       <use xlink:href="#DejaVuSans-6f" x="118.457031"/>
       <use xlink:href="#DejaVuSans-72" x="179.638672"/>
       <use xlink:href="#DejaVuSans-65" x="218.501953"/>
       <use xlink:href="#DejaVuSans-43" x="280.025391"/>
       <use xlink:href="#DejaVuSans-41" x="349.849609"/>
       <use xlink:href="#DejaVuSans-4d" x="418.257812"/>
      </g>
     </g>
    </g>
    <g id="xtick_7">
     <g id="text_7">
      <!-- XRAI -->
      <g style="fill: #262626" transform="translate(337.715711 497.831007) rotate(-45) scale(0.25 -0.25)">
       <defs>
        <path id="DejaVuSans-58" d="M 403 4666 
L 1081 4666 
L 2241 2931 
L 3406 4666 
L 4084 4666 
L 2584 2425 
L 4184 0 
L 3506 0 
L 2194 1984 
L 872 0 
L 191 0 
L 1856 2491 
L 403 4666 
z
" transform="scale(0.015625)"/>
        <path id="DejaVuSans-52" d="M 2841 2188 
Q 3044 2119 3236 1894 
Q 3428 1669 3622 1275 
L 4263 0 
L 3584 0 
L 2988 1197 
Q 2756 1666 2539 1819 
Q 2322 1972 1947 1972 
L 1259 1972 
L 1259 0 
L 628 0 
L 628 4666 
L 2053 4666 
Q 2853 4666 3247 4331 
Q 3641 3997 3641 3322 
Q 3641 2881 3436 2590 
Q 3231 2300 2841 2188 
z
M 1259 4147 
L 1259 2491 
L 2053 2491 
Q 2509 2491 2742 2702 
Q 2975 2913 2975 3322 
Q 2975 3731 2742 3939 
Q 2509 4147 2053 4147 
L 1259 4147 
z
" transform="scale(0.015625)"/>
       </defs>
       <use xlink:href="#DejaVuSans-58"/>
       <use xlink:href="#DejaVuSans-52" x="68.505859"/>
       <use xlink:href="#DejaVuSans-41" x="133.988281"/>
       <use xlink:href="#DejaVuSans-49" x="202.396484"/>
      </g>
     </g>
    </g>
    <g id="xtick_8">
     <g id="text_8">
      <!-- KernelSHAP -->
      <g style="fill: #262626" transform="translate(308.728164 559.642084) rotate(-45) scale(0.25 -0.25)">
       <defs>
        <path id="DejaVuSans-4b" d="M 628 4666 
L 1259 4666 
L 1259 2694 
L 3353 4666 
L 4166 4666 
L 1850 2491 
L 4331 0 
L 3500 0 
L 1259 2247 
L 1259 0 
L 628 0 
L 628 4666 
z
" transform="scale(0.015625)"/>
        <path id="DejaVuSans-6c" d="M 603 4863 
L 1178 4863 
L 1178 0 
L 603 0 
L 603 4863 
z
" transform="scale(0.015625)"/>
       </defs>
       <use xlink:href="#DejaVuSans-4b"/>
       <use xlink:href="#DejaVuSans-65" x="60.576172"/>
       <use xlink:href="#DejaVuSans-72" x="122.099609"/>
       <use xlink:href="#DejaVuSans-6e" x="161.462891"/>
       <use xlink:href="#DejaVuSans-65" x="224.841797"/>
       <use xlink:href="#DejaVuSans-6c" x="286.365234"/>
       <use xlink:href="#DejaVuSans-53" x="314.148438"/>
       <use xlink:href="#DejaVuSans-48" x="377.625"/>
       <use xlink:href="#DejaVuSans-41" x="452.820312"/>
       <use xlink:href="#DejaVuSans-50" x="521.228516"/>
      </g>
     </g>
    </g>
    <g id="xtick_9">
     <g id="text_9">
      <!-- LIME -->
      <g style="fill: #262626" transform="translate(402.868348 498.32543) rotate(-45) scale(0.25 -0.25)">
       <use xlink:href="#DejaVuSans-4c"/>
       <use xlink:href="#DejaVuSans-49" x="55.712891"/>
       <use xlink:href="#DejaVuSans-4d" x="85.205078"/>
       <use xlink:href="#DejaVuSans-45" x="171.484375"/>
      </g>
     </g>
    </g>
    <g id="xtick_10">
     <g id="text_10">
      <!-- SmoothGrad -->
      <g style="fill: #262626" transform="translate(365.950709 568.066598) rotate(-45) scale(0.25 -0.25)">
       <defs>
        <path id="DejaVuSans-6d" d="M 3328 2828 
Q 3544 3216 3844 3400 
Q 4144 3584 4550 3584 
Q 5097 3584 5394 3201 
Q 5691 2819 5691 2113 
L 5691 0 
L 5113 0 
L 5113 2094 
Q 5113 2597 4934 2840 
Q 4756 3084 4391 3084 
Q 3944 3084 3684 2787 
Q 3425 2491 3425 1978 
L 3425 0 
L 2847 0 
L 2847 2094 
Q 2847 2600 2669 2842 
Q 2491 3084 2119 3084 
Q 1678 3084 1418 2786 
Q 1159 2488 1159 1978 
L 1159 0 
L 581 0 
L 581 3500 
L 1159 3500 
L 1159 2956 
Q 1356 3278 1631 3431 
Q 1906 3584 2284 3584 
Q 2666 3584 2933 3390 
Q 3200 3197 3328 2828 
z
" transform="scale(0.015625)"/>
        <path id="DejaVuSans-68" d="M 3513 2113 
L 3513 0 
L 2938 0 
L 2938 2094 
Q 2938 2591 2744 2837 
Q 2550 3084 2163 3084 
Q 1697 3084 1428 2787 
Q 1159 2491 1159 1978 
L 1159 0 
L 581 0 
L 581 4863 
L 1159 4863 
L 1159 2956 
Q 1366 3272 1645 3428 
Q 1925 3584 2291 3584 
Q 2894 3584 3203 3211 
Q 3513 2838 3513 2113 
z
" transform="scale(0.015625)"/>
       </defs>
       <use xlink:href="#DejaVuSans-53"/>
       <use xlink:href="#DejaVuSans-6d" x="63.476562"/>
       <use xlink:href="#DejaVuSans-6f" x="160.888672"/>
       <use xlink:href="#DejaVuSans-6f" x="222.070312"/>
       <use xlink:href="#DejaVuSans-74" x="283.251953"/>
       <use xlink:href="#DejaVuSans-68" x="322.460938"/>
       <use xlink:href="#DejaVuSans-47" x="385.839844"/>
       <use xlink:href="#DejaVuSans-72" x="463.330078"/>
       <use xlink:href="#DejaVuSans-61" x="504.443359"/>
       <use xlink:href="#DejaVuSans-64" x="565.722656"/>
      </g>
     </g>
    </g>
    <g id="xtick_11">
     <g id="text_11">
      <!-- VarGrad -->
      <g style="fill: #262626" transform="translate(438.159533 528.681303) rotate(-45) scale(0.25 -0.25)">
       <defs>
        <path id="DejaVuSans-56" d="M 1831 0 
L 50 4666 
L 709 4666 
L 2188 738 
L 3669 4666 
L 4325 4666 
L 2547 0 
L 1831 0 
z
" transform="scale(0.015625)"/>
       </defs>
       <use xlink:href="#DejaVuSans-56"/>
       <use xlink:href="#DejaVuSans-61" x="60.658203"/>
       <use xlink:href="#DejaVuSans-72" x="121.9375"/>
       <use xlink:href="#DejaVuSans-47" x="163.050781"/>
       <use xlink:href="#DejaVuSans-72" x="240.541016"/>
       <use xlink:href="#DejaVuSans-61" x="281.654297"/>
       <use xlink:href="#DejaVuSans-64" x="342.933594"/>
      </g>
     </g>
    </g>
    <g id="xtick_12">
     <g id="text_12">
      <!-- IntegratedGradients -->
      <g style="fill: #262626" transform="translate(364.096691 635.567674) rotate(-45) scale(0.25 -0.25)">
       <defs>
        <path id="DejaVuSans-67" d="M 2906 1791 
Q 2906 2416 2648 2759 
Q 2391 3103 1925 3103 
Q 1463 3103 1205 2759 
Q 947 2416 947 1791 
Q 947 1169 1205 825 
Q 1463 481 1925 481 
Q 2391 481 2648 825 
Q 2906 1169 2906 1791 
z
M 3481 434 
Q 3481 -459 3084 -895 
Q 2688 -1331 1869 -1331 
Q 1566 -1331 1297 -1286 
Q 1028 -1241 775 -1147 
L 775 -588 
Q 1028 -725 1275 -790 
Q 1522 -856 1778 -856 
Q 2344 -856 2625 -561 
Q 2906 -266 2906 331 
L 2906 616 
Q 2728 306 2450 153 
Q 2172 0 1784 0 
Q 1141 0 747 490 
Q 353 981 353 1791 
Q 353 2603 747 3093 
Q 1141 3584 1784 3584 
Q 2172 3584 2450 3431 
Q 2728 3278 2906 2969 
L 2906 3500 
L 3481 3500 
L 3481 434 
z
" transform="scale(0.015625)"/>
       </defs>
       <use xlink:href="#DejaVuSans-49"/>
       <use xlink:href="#DejaVuSans-6e" x="29.492188"/>
       <use xlink:href="#DejaVuSans-74" x="92.871094"/>
       <use xlink:href="#DejaVuSans-65" x="132.080078"/>
       <use xlink:href="#DejaVuSans-67" x="193.603516"/>
       <use xlink:href="#DejaVuSans-72" x="257.080078"/>
       <use xlink:href="#DejaVuSans-61" x="298.193359"/>
       <use xlink:href="#DejaVuSans-74" x="359.472656"/>
       <use xlink:href="#DejaVuSans-65" x="398.681641"/>
       <use xlink:href="#DejaVuSans-64" x="460.205078"/>
       <use xlink:href="#DejaVuSans-47" x="523.681641"/>
       <use xlink:href="#DejaVuSans-72" x="601.171875"/>
       <use xlink:href="#DejaVuSans-61" x="642.285156"/>
       <use xlink:href="#DejaVuSans-64" x="703.564453"/>
       <use xlink:href="#DejaVuSans-69" x="767.041016"/>
       <use xlink:href="#DejaVuSans-65" x="794.824219"/>
       <use xlink:href="#DejaVuSans-6e" x="856.347656"/>
       <use xlink:href="#DejaVuSans-74" x="919.726562"/>
       <use xlink:href="#DejaVuSans-73" x="958.935547"/>
      </g>
     </g>
    </g>
    <g id="xtick_13">
     <g id="text_13">
      <!-- InputXGradient -->
      <g style="fill: #262626" transform="translate(440.82437 591.663525) rotate(-45) scale(0.25 -0.25)">
       <defs>
        <path id="DejaVuSans-75" d="M 544 1381 
L 544 3500 
L 1119 3500 
L 1119 1403 
Q 1119 906 1312 657 
Q 1506 409 1894 409 
Q 2359 409 2629 706 
Q 2900 1003 2900 1516 
L 2900 3500 
L 3475 3500 
L 3475 0 
L 2900 0 
L 2900 538 
Q 2691 219 2414 64 
Q 2138 -91 1772 -91 
Q 1169 -91 856 284 
Q 544 659 544 1381 
z
M 1991 3584 
L 1991 3584 
z
" transform="scale(0.015625)"/>
       </defs>
       <use xlink:href="#DejaVuSans-49"/>
       <use xlink:href="#DejaVuSans-6e" x="29.492188"/>
       <use xlink:href="#DejaVuSans-70" x="92.871094"/>
       <use xlink:href="#DejaVuSans-75" x="156.347656"/>
       <use xlink:href="#DejaVuSans-74" x="219.726562"/>
       <use xlink:href="#DejaVuSans-58" x="258.935547"/>
       <use xlink:href="#DejaVuSans-47" x="327.441406"/>
       <use xlink:href="#DejaVuSans-72" x="404.931641"/>
       <use xlink:href="#DejaVuSans-61" x="446.044922"/>
       <use xlink:href="#DejaVuSans-64" x="507.324219"/>
       <use xlink:href="#DejaVuSans-69" x="570.800781"/>
       <use xlink:href="#DejaVuSans-65" x="598.583984"/>
       <use xlink:href="#DejaVuSans-6e" x="660.107422"/>
       <use xlink:href="#DejaVuSans-74" x="723.486328"/>
      </g>
     </g>
    </g>
    <g id="xtick_14">
     <g id="text_14">
      <!-- Gradient -->
      <g style="fill: #262626" transform="translate(531.531219 533.780206) rotate(-45) scale(0.25 -0.25)">
       <use xlink:href="#DejaVuSans-47"/>
       <use xlink:href="#DejaVuSans-72" x="77.490234"/>
       <use xlink:href="#DejaVuSans-61" x="118.603516"/>
       <use xlink:href="#DejaVuSans-64" x="179.882812"/>
       <use xlink:href="#DejaVuSans-69" x="243.359375"/>
       <use xlink:href="#DejaVuSans-65" x="271.142578"/>
       <use xlink:href="#DejaVuSans-6e" x="332.666016"/>
       <use xlink:href="#DejaVuSans-74" x="396.044922"/>
      </g>
     </g>
    </g>
    <g id="xtick_15">
     <g id="text_15">
      <!-- GuidedBackprop -->
      <g style="fill: #262626" transform="translate(495.113526 603.021428) rotate(-45) scale(0.25 -0.25)">
       <defs>
        <path id="DejaVuSans-42" d="M 1259 2228 
L 1259 519 
L 2272 519 
Q 2781 519 3026 730 
Q 3272 941 3272 1375 
Q 3272 1813 3026 2020 
Q 2781 2228 2272 2228 
L 1259 2228 
z
M 1259 4147 
L 1259 2741 
L 2194 2741 
Q 2656 2741 2882 2914 
Q 3109 3088 3109 3444 
Q 3109 3797 2882 3972 
Q 2656 4147 2194 4147 
L 1259 4147 
z
M 628 4666 
L 2241 4666 
Q 2963 4666 3353 4366 
Q 3744 4066 3744 3513 
Q 3744 3084 3544 2831 
Q 3344 2578 2956 2516 
Q 3422 2416 3680 2098 
Q 3938 1781 3938 1306 
Q 3938 681 3513 340 
Q 3088 0 2303 0 
L 628 0 
L 628 4666 
z
" transform="scale(0.015625)"/>
        <path id="DejaVuSans-6b" d="M 581 4863 
L 1159 4863 
L 1159 1991 
L 2875 3500 
L 3609 3500 
L 1753 1863 
L 3688 0 
L 2938 0 
L 1159 1709 
L 1159 0 
L 581 0 
L 581 4863 
z
" transform="scale(0.015625)"/>
       </defs>
       <use xlink:href="#DejaVuSans-47"/>
       <use xlink:href="#DejaVuSans-75" x="77.490234"/>
       <use xlink:href="#DejaVuSans-69" x="140.869141"/>
       <use xlink:href="#DejaVuSans-64" x="168.652344"/>
       <use xlink:href="#DejaVuSans-65" x="232.128906"/>
       <use xlink:href="#DejaVuSans-64" x="293.652344"/>
       <use xlink:href="#DejaVuSans-42" x="357.128906"/>
       <use xlink:href="#DejaVuSans-61" x="425.732422"/>
       <use xlink:href="#DejaVuSans-63" x="487.011719"/>
       <use xlink:href="#DejaVuSans-6b" x="541.992188"/>
       <use xlink:href="#DejaVuSans-70" x="599.902344"/>
       <use xlink:href="#DejaVuSans-72" x="663.378906"/>
       <use xlink:href="#DejaVuSans-6f" x="702.242188"/>
       <use xlink:href="#DejaVuSans-70" x="763.423828"/>
      </g>
     </g>
    </g>
    <g id="xtick_16">
     <g id="text_16">
      <!-- GuidedGradCAM -->
      <g style="fill: #262626" transform="translate(528.276799 602.681685) rotate(-45) scale(0.25 -0.25)">
       <use xlink:href="#DejaVuSans-47"/>
       <use xlink:href="#DejaVuSans-75" x="77.490234"/>
       <use xlink:href="#DejaVuSans-69" x="140.869141"/>
       <use xlink:href="#DejaVuSans-64" x="168.652344"/>
       <use xlink:href="#DejaVuSans-65" x="232.128906"/>
       <use xlink:href="#DejaVuSans-64" x="293.652344"/>
       <use xlink:href="#DejaVuSans-47" x="357.128906"/>
       <use xlink:href="#DejaVuSans-72" x="434.619141"/>
       <use xlink:href="#DejaVuSans-61" x="475.732422"/>
       <use xlink:href="#DejaVuSans-64" x="537.011719"/>
       <use xlink:href="#DejaVuSans-43" x="600.488281"/>
       <use xlink:href="#DejaVuSans-41" x="670.3125"/>
       <use xlink:href="#DejaVuSans-4d" x="738.720703"/>
      </g>
     </g>
    </g>
    <g id="xtick_17">
     <g id="text_17">
      <!-- Deconvolution -->
      <g style="fill: #262626" transform="translate(579.460245 584.321768) rotate(-45) scale(0.25 -0.25)">
       <defs>
        <path id="DejaVuSans-76" d="M 191 3500 
L 800 3500 
L 1894 563 
L 2988 3500 
L 3597 3500 
L 2284 0 
L 1503 0 
L 191 3500 
z
" transform="scale(0.015625)"/>
       </defs>
       <use xlink:href="#DejaVuSans-44"/>
       <use xlink:href="#DejaVuSans-65" x="77.001953"/>
       <use xlink:href="#DejaVuSans-63" x="138.525391"/>
       <use xlink:href="#DejaVuSans-6f" x="193.505859"/>
       <use xlink:href="#DejaVuSans-6e" x="254.6875"/>
       <use xlink:href="#DejaVuSans-76" x="318.066406"/>
       <use xlink:href="#DejaVuSans-6f" x="377.246094"/>
       <use xlink:href="#DejaVuSans-6c" x="438.427734"/>
       <use xlink:href="#DejaVuSans-75" x="466.210938"/>
       <use xlink:href="#DejaVuSans-74" x="529.589844"/>
       <use xlink:href="#DejaVuSans-69" x="568.798828"/>
       <use xlink:href="#DejaVuSans-6f" x="596.582031"/>
       <use xlink:href="#DejaVuSans-6e" x="657.763672"/>
      </g>
     </g>
    </g>
    <g id="xtick_18">
     <g id="line2d_1">
      <path d="M 201.855561 433.905882 
L 201.855561 7.2 
" clip-path="url(#p534c875f47)" style="fill: none; stroke: #ffffff; stroke-linecap: round"/>
     </g>
    </g>
    <g id="xtick_19">
     <g id="line2d_2">
      <path d="M 234.67909 433.905882 
L 234.67909 7.2 
" clip-path="url(#p534c875f47)" style="fill: none; stroke: #ffffff; stroke-linecap: round"/>
     </g>
    </g>
    <g id="xtick_20">
     <g id="line2d_3">
      <path d="M 267.502619 433.905882 
L 267.502619 7.2 
" clip-path="url(#p534c875f47)" style="fill: none; stroke: #ffffff; stroke-linecap: round"/>
     </g>
    </g>
    <g id="xtick_21">
     <g id="line2d_4">
      <path d="M 300.326149 433.905882 
L 300.326149 7.2 
" clip-path="url(#p534c875f47)" style="fill: none; stroke: #ffffff; stroke-linecap: round"/>
     </g>
    </g>
    <g id="xtick_22">
     <g id="line2d_5">
      <path d="M 333.149678 433.905882 
L 333.149678 7.2 
" clip-path="url(#p534c875f47)" style="fill: none; stroke: #ffffff; stroke-linecap: round"/>
     </g>
    </g>
    <g id="xtick_23">
     <g id="line2d_6">
      <path d="M 365.973208 433.905882 
L 365.973208 7.2 
" clip-path="url(#p534c875f47)" style="fill: none; stroke: #ffffff; stroke-linecap: round"/>
     </g>
    </g>
    <g id="xtick_24">
     <g id="line2d_7">
      <path d="M 398.796737 433.905882 
L 398.796737 7.2 
" clip-path="url(#p534c875f47)" style="fill: none; stroke: #ffffff; stroke-linecap: round"/>
     </g>
    </g>
    <g id="xtick_25">
     <g id="line2d_8">
      <path d="M 431.620267 433.905882 
L 431.620267 7.2 
" clip-path="url(#p534c875f47)" style="fill: none; stroke: #ffffff; stroke-linecap: round"/>
     </g>
    </g>
    <g id="xtick_26">
     <g id="line2d_9">
      <path d="M 464.443796 433.905882 
L 464.443796 7.2 
" clip-path="url(#p534c875f47)" style="fill: none; stroke: #ffffff; stroke-linecap: round"/>
     </g>
    </g>
    <g id="xtick_27">
     <g id="line2d_10">
      <path d="M 497.267325 433.905882 
L 497.267325 7.2 
" clip-path="url(#p534c875f47)" style="fill: none; stroke: #ffffff; stroke-linecap: round"/>
     </g>
    </g>
    <g id="xtick_28">
     <g id="line2d_11">
      <path d="M 530.090855 433.905882 
L 530.090855 7.2 
" clip-path="url(#p534c875f47)" style="fill: none; stroke: #ffffff; stroke-linecap: round"/>
     </g>
    </g>
    <g id="xtick_29">
     <g id="line2d_12">
      <path d="M 562.914384 433.905882 
L 562.914384 7.2 
" clip-path="url(#p534c875f47)" style="fill: none; stroke: #ffffff; stroke-linecap: round"/>
     </g>
    </g>
    <g id="xtick_30">
     <g id="line2d_13">
      <path d="M 595.737914 433.905882 
L 595.737914 7.2 
" clip-path="url(#p534c875f47)" style="fill: none; stroke: #ffffff; stroke-linecap: round"/>
     </g>
    </g>
    <g id="xtick_31">
     <g id="line2d_14">
      <path d="M 628.561443 433.905882 
L 628.561443 7.2 
" clip-path="url(#p534c875f47)" style="fill: none; stroke: #ffffff; stroke-linecap: round"/>
     </g>
    </g>
    <g id="xtick_32">
     <g id="line2d_15">
      <path d="M 661.384972 433.905882 
L 661.384972 7.2 
" clip-path="url(#p534c875f47)" style="fill: none; stroke: #ffffff; stroke-linecap: round"/>
     </g>
    </g>
    <g id="xtick_33">
     <g id="line2d_16">
      <path d="M 694.208502 433.905882 
L 694.208502 7.2 
" clip-path="url(#p534c875f47)" style="fill: none; stroke: #ffffff; stroke-linecap: round"/>
     </g>
    </g>
    <g id="xtick_34">
     <g id="line2d_17">
      <path d="M 727.032031 433.905882 
L 727.032031 7.2 
" clip-path="url(#p534c875f47)" style="fill: none; stroke: #ffffff; stroke-linecap: round"/>
     </g>
    </g>
   </g>
   <g id="matplotlib.axis_2">
    <g id="ytick_1">
     <g id="text_18">
      <!-- SensN -->
      <g style="fill: #262626" transform="translate(80.707812 426.992165) scale(0.25 -0.25)">
       <defs>
        <path id="DejaVuSans-4e" d="M 628 4666 
L 1478 4666 
L 3547 763 
L 3547 4666 
L 4159 4666 
L 4159 0 
L 3309 0 
L 1241 3903 
L 1241 0 
L 628 0 
L 628 4666 
z
" transform="scale(0.015625)"/>
       </defs>
       <use xlink:href="#DejaVuSans-53"/>
       <use xlink:href="#DejaVuSans-65" x="63.476562"/>
       <use xlink:href="#DejaVuSans-6e" x="125"/>
       <use xlink:href="#DejaVuSans-73" x="188.378906"/>
       <use xlink:href="#DejaVuSans-4e" x="240.478516"/>
      </g>
     </g>
    </g>
    <g id="ytick_2">
     <g id="text_19">
      <!-- SegSensN -->
      <g style="fill: #262626" transform="translate(33.582812 394.168635) scale(0.25 -0.25)">
       <use xlink:href="#DejaVuSans-53"/>
       <use xlink:href="#DejaVuSans-65" x="63.476562"/>
       <use xlink:href="#DejaVuSans-67" x="125"/>
       <use xlink:href="#DejaVuSans-53" x="188.476562"/>
       <use xlink:href="#DejaVuSans-65" x="251.953125"/>
       <use xlink:href="#DejaVuSans-6e" x="313.476562"/>
       <use xlink:href="#DejaVuSans-73" x="376.855469"/>
       <use xlink:href="#DejaVuSans-4e" x="428.955078"/>
      </g>
     </g>
    </g>
    <g id="ytick_3">
     <g id="text_20">
      <!-- MaxSens -->
      <g style="fill: #262626" transform="translate(47.723437 361.345106) scale(0.25 -0.25)">
       <use xlink:href="#DejaVuSans-4d"/>
       <use xlink:href="#DejaVuSans-61" x="86.279297"/>
       <use xlink:href="#DejaVuSans-78" x="147.558594"/>
       <use xlink:href="#DejaVuSans-53" x="206.738281"/>
       <use xlink:href="#DejaVuSans-65" x="270.214844"/>
       <use xlink:href="#DejaVuSans-6e" x="331.738281"/>
       <use xlink:href="#DejaVuSans-73" x="395.117188"/>
      </g>
     </g>
    </g>
    <g id="ytick_4">
     <g id="text_21">
      <!-- MSIns -->
      <g style="fill: #262626" transform="translate(85.848437 328.521576) scale(0.25 -0.25)">
       <use xlink:href="#DejaVuSans-4d"/>
       <use xlink:href="#DejaVuSans-53" x="86.279297"/>
       <use xlink:href="#DejaVuSans-49" x="149.755859"/>
       <use xlink:href="#DejaVuSans-6e" x="179.248047"/>
       <use xlink:href="#DejaVuSans-73" x="242.626953"/>
      </g>
     </g>
    </g>
    <g id="ytick_5">
     <g id="text_22">
      <!-- MSDel -->
      <g style="fill: #262626" transform="translate(80.5125 295.698047) scale(0.25 -0.25)">
       <use xlink:href="#DejaVuSans-4d"/>
       <use xlink:href="#DejaVuSans-53" x="86.279297"/>
       <use xlink:href="#DejaVuSans-44" x="149.755859"/>
       <use xlink:href="#DejaVuSans-65" x="226.757812"/>
       <use xlink:href="#DejaVuSans-6c" x="288.28125"/>
      </g>
     </g>
    </g>
    <g id="ytick_6">
     <g id="text_23">
      <!-- Ins - MoRF -->
      <g style="fill: #262626" transform="translate(29.7625 262.874517) scale(0.25 -0.25)">
       <defs>
        <path id="DejaVuSans-20" transform="scale(0.015625)"/>
        <path id="DejaVuSans-2d" d="M 313 2009 
L 1997 2009 
L 1997 1497 
L 313 1497 
L 313 2009 
z
" transform="scale(0.015625)"/>
       </defs>
       <use xlink:href="#DejaVuSans-49"/>
       <use xlink:href="#DejaVuSans-6e" x="29.492188"/>
       <use xlink:href="#DejaVuSans-73" x="92.871094"/>
       <use xlink:href="#DejaVuSans-20" x="144.970703"/>
       <use xlink:href="#DejaVuSans-2d" x="176.757812"/>
       <use xlink:href="#DejaVuSans-20" x="212.841797"/>
       <use xlink:href="#DejaVuSans-4d" x="244.628906"/>
       <use xlink:href="#DejaVuSans-6f" x="330.908203"/>
       <use xlink:href="#DejaVuSans-52" x="392.089844"/>
       <use xlink:href="#DejaVuSans-46" x="461.572266"/>
      </g>
     </g>
    </g>
    <g id="ytick_7">
     <g id="text_24">
      <!-- Ins - LeRF -->
      <g style="fill: #262626" transform="translate(37.754687 230.050988) scale(0.25 -0.25)">
       <use xlink:href="#DejaVuSans-49"/>
       <use xlink:href="#DejaVuSans-6e" x="29.492188"/>
       <use xlink:href="#DejaVuSans-73" x="92.871094"/>
       <use xlink:href="#DejaVuSans-20" x="144.970703"/>
       <use xlink:href="#DejaVuSans-2d" x="176.757812"/>
       <use xlink:href="#DejaVuSans-20" x="212.841797"/>
       <use xlink:href="#DejaVuSans-4c" x="244.628906"/>
       <use xlink:href="#DejaVuSans-65" x="298.591797"/>
       <use xlink:href="#DejaVuSans-52" x="360.115234"/>
       <use xlink:href="#DejaVuSans-46" x="429.597656"/>
      </g>
     </g>
    </g>
    <g id="ytick_8">
     <g id="text_25">
      <!-- IROF - MoRF -->
      <g style="fill: #262626" transform="translate(7.2 197.227459) scale(0.25 -0.25)">
       <defs>
        <path id="DejaVuSans-4f" d="M 2522 4238 
Q 1834 4238 1429 3725 
Q 1025 3213 1025 2328 
Q 1025 1447 1429 934 
Q 1834 422 2522 422 
Q 3209 422 3611 934 
Q 4013 1447 4013 2328 
Q 4013 3213 3611 3725 
Q 3209 4238 2522 4238 
z
M 2522 4750 
Q 3503 4750 4090 4092 
Q 4678 3434 4678 2328 
Q 4678 1225 4090 567 
Q 3503 -91 2522 -91 
Q 1538 -91 948 565 
Q 359 1222 359 2328 
Q 359 3434 948 4092 
Q 1538 4750 2522 4750 
z
" transform="scale(0.015625)"/>
       </defs>
       <use xlink:href="#DejaVuSans-49"/>
       <use xlink:href="#DejaVuSans-52" x="29.492188"/>
       <use xlink:href="#DejaVuSans-4f" x="98.974609"/>
       <use xlink:href="#DejaVuSans-46" x="177.685547"/>
       <use xlink:href="#DejaVuSans-20" x="235.205078"/>
       <use xlink:href="#DejaVuSans-2d" x="266.992188"/>
       <use xlink:href="#DejaVuSans-20" x="303.076172"/>
       <use xlink:href="#DejaVuSans-4d" x="334.863281"/>
       <use xlink:href="#DejaVuSans-6f" x="421.142578"/>
       <use xlink:href="#DejaVuSans-52" x="482.324219"/>
       <use xlink:href="#DejaVuSans-46" x="551.806641"/>
      </g>
     </g>
    </g>
    <g id="ytick_9">
     <g id="text_26">
      <!-- IROF - LeRF -->
      <g style="fill: #262626" transform="translate(15.192187 164.403929) scale(0.25 -0.25)">
       <use xlink:href="#DejaVuSans-49"/>
       <use xlink:href="#DejaVuSans-52" x="29.492188"/>
       <use xlink:href="#DejaVuSans-4f" x="98.974609"/>
       <use xlink:href="#DejaVuSans-46" x="177.685547"/>
       <use xlink:href="#DejaVuSans-20" x="235.205078"/>
       <use xlink:href="#DejaVuSans-2d" x="266.992188"/>
       <use xlink:href="#DejaVuSans-20" x="303.076172"/>
       <use xlink:href="#DejaVuSans-4c" x="334.863281"/>
       <use xlink:href="#DejaVuSans-65" x="388.826172"/>
       <use xlink:href="#DejaVuSans-52" x="450.349609"/>
       <use xlink:href="#DejaVuSans-46" x="519.832031"/>
      </g>
     </g>
    </g>
    <g id="ytick_10">
     <g id="text_27">
      <!-- INFD - SQ -->
      <g style="fill: #262626" transform="translate(39.364062 131.5804) scale(0.25 -0.25)">
       <defs>
        <path id="DejaVuSans-51" d="M 2522 4238 
Q 1834 4238 1429 3725 
Q 1025 3213 1025 2328 
Q 1025 1447 1429 934 
Q 1834 422 2522 422 
Q 3209 422 3611 934 
Q 4013 1447 4013 2328 
Q 4013 3213 3611 3725 
Q 3209 4238 2522 4238 
z
M 3406 84 
L 4238 -825 
L 3475 -825 
L 2784 -78 
Q 2681 -84 2626 -87 
Q 2572 -91 2522 -91 
Q 1538 -91 948 567 
Q 359 1225 359 2328 
Q 359 3434 948 4092 
Q 1538 4750 2522 4750 
Q 3503 4750 4090 4092 
Q 4678 3434 4678 2328 
Q 4678 1516 4351 937 
Q 4025 359 3406 84 
z
" transform="scale(0.015625)"/>
       </defs>
       <use xlink:href="#DejaVuSans-49"/>
       <use xlink:href="#DejaVuSans-4e" x="29.492188"/>
       <use xlink:href="#DejaVuSans-46" x="104.296875"/>
       <use xlink:href="#DejaVuSans-44" x="161.816406"/>
       <use xlink:href="#DejaVuSans-20" x="238.818359"/>
       <use xlink:href="#DejaVuSans-2d" x="270.605469"/>
       <use xlink:href="#DejaVuSans-20" x="306.689453"/>
       <use xlink:href="#DejaVuSans-53" x="338.476562"/>
       <use xlink:href="#DejaVuSans-51" x="401.953125"/>
      </g>
     </g>
    </g>
    <g id="ytick_11">
     <g id="text_28">
      <!-- INFD - BL -->
      <g style="fill: #262626" transform="translate(43.832812 98.75687) scale(0.25 -0.25)">
       <use xlink:href="#DejaVuSans-49"/>
       <use xlink:href="#DejaVuSans-4e" x="29.492188"/>
       <use xlink:href="#DejaVuSans-46" x="104.296875"/>
       <use xlink:href="#DejaVuSans-44" x="161.816406"/>
       <use xlink:href="#DejaVuSans-20" x="238.818359"/>
       <use xlink:href="#DejaVuSans-2d" x="270.605469"/>
       <use xlink:href="#DejaVuSans-20" x="306.689453"/>
       <use xlink:href="#DejaVuSans-42" x="338.476562"/>
       <use xlink:href="#DejaVuSans-4c" x="407.080078"/>
      </g>
     </g>
    </g>
    <g id="ytick_12">
     <g id="text_29">
      <!-- Del - MoRF -->
      <g style="fill: #262626" transform="translate(24.426562 65.933341) scale(0.25 -0.25)">
       <use xlink:href="#DejaVuSans-44"/>
       <use xlink:href="#DejaVuSans-65" x="77.001953"/>
       <use xlink:href="#DejaVuSans-6c" x="138.525391"/>
       <use xlink:href="#DejaVuSans-20" x="166.308594"/>
       <use xlink:href="#DejaVuSans-2d" x="198.095703"/>
       <use xlink:href="#DejaVuSans-20" x="234.179688"/>
       <use xlink:href="#DejaVuSans-4d" x="265.966797"/>
       <use xlink:href="#DejaVuSans-6f" x="352.246094"/>
       <use xlink:href="#DejaVuSans-52" x="413.427734"/>
       <use xlink:href="#DejaVuSans-46" x="482.910156"/>
      </g>
     </g>
    </g>
    <g id="ytick_13">
     <g id="text_30">
      <!-- Del - LeRF -->
      <g style="fill: #262626" transform="translate(32.41875 33.109812) scale(0.25 -0.25)">
       <use xlink:href="#DejaVuSans-44"/>
       <use xlink:href="#DejaVuSans-65" x="77.001953"/>
       <use xlink:href="#DejaVuSans-6c" x="138.525391"/>
       <use xlink:href="#DejaVuSans-20" x="166.308594"/>
       <use xlink:href="#DejaVuSans-2d" x="198.095703"/>
       <use xlink:href="#DejaVuSans-20" x="234.179688"/>
       <use xlink:href="#DejaVuSans-4c" x="265.966797"/>
       <use xlink:href="#DejaVuSans-65" x="319.929688"/>
       <use xlink:href="#DejaVuSans-52" x="381.453125"/>
       <use xlink:href="#DejaVuSans-46" x="450.935547"/>
      </g>
     </g>
    </g>
    <g id="ytick_14">
     <g id="line2d_18">
      <path d="M 169.032031 401.082353 
L 727.032031 401.082353 
" clip-path="url(#p534c875f47)" style="fill: none; stroke: #ffffff; stroke-linecap: round"/>
     </g>
    </g>
    <g id="ytick_15">
     <g id="line2d_19">
      <path d="M 169.032031 368.258824 
L 727.032031 368.258824 
" clip-path="url(#p534c875f47)" style="fill: none; stroke: #ffffff; stroke-linecap: round"/>
     </g>
    </g>
    <g id="ytick_16">
     <g id="line2d_20">
      <path d="M 169.032031 335.435294 
L 727.032031 335.435294 
" clip-path="url(#p534c875f47)" style="fill: none; stroke: #ffffff; stroke-linecap: round"/>
     </g>
    </g>
    <g id="ytick_17">
     <g id="line2d_21">
      <path d="M 169.032031 302.611765 
L 727.032031 302.611765 
" clip-path="url(#p534c875f47)" style="fill: none; stroke: #ffffff; stroke-linecap: round"/>
     </g>
    </g>
    <g id="ytick_18">
     <g id="line2d_22">
      <path d="M 169.032031 269.788235 
L 727.032031 269.788235 
" clip-path="url(#p534c875f47)" style="fill: none; stroke: #ffffff; stroke-linecap: round"/>
     </g>
    </g>
    <g id="ytick_19">
     <g id="line2d_23">
      <path d="M 169.032031 236.964706 
L 727.032031 236.964706 
" clip-path="url(#p534c875f47)" style="fill: none; stroke: #ffffff; stroke-linecap: round"/>
     </g>
    </g>
    <g id="ytick_20">
     <g id="line2d_24">
      <path d="M 169.032031 204.141176 
L 727.032031 204.141176 
" clip-path="url(#p534c875f47)" style="fill: none; stroke: #ffffff; stroke-linecap: round"/>
     </g>
    </g>
    <g id="ytick_21">
     <g id="line2d_25">
      <path d="M 169.032031 171.317647 
L 727.032031 171.317647 
" clip-path="url(#p534c875f47)" style="fill: none; stroke: #ffffff; stroke-linecap: round"/>
     </g>
    </g>
    <g id="ytick_22">
     <g id="line2d_26">
      <path d="M 169.032031 138.494118 
L 727.032031 138.494118 
" clip-path="url(#p534c875f47)" style="fill: none; stroke: #ffffff; stroke-linecap: round"/>
     </g>
    </g>
    <g id="ytick_23">
     <g id="line2d_27">
      <path d="M 169.032031 105.670588 
L 727.032031 105.670588 
" clip-path="url(#p534c875f47)" style="fill: none; stroke: #ffffff; stroke-linecap: round"/>
     </g>
    </g>
    <g id="ytick_24">
     <g id="line2d_28">
      <path d="M 169.032031 72.847059 
L 727.032031 72.847059 
" clip-path="url(#p534c875f47)" style="fill: none; stroke: #ffffff; stroke-linecap: round"/>
     </g>
    </g>
    <g id="ytick_25">
     <g id="line2d_29">
      <path d="M 169.032031 40.023529 
L 727.032031 40.023529 
" clip-path="url(#p534c875f47)" style="fill: none; stroke: #ffffff; stroke-linecap: round"/>
     </g>
    </g>
    <g id="ytick_26">
     <g id="line2d_30">
      <path d="M 169.032031 7.2 
L 727.032031 7.2 
" clip-path="url(#p534c875f47)" style="fill: none; stroke: #ffffff; stroke-linecap: round"/>
     </g>
    </g>
   </g>
   <g id="PathCollection_1">
    <path d="M 710.620267 417.494118 
L 710.620267 417.494118 
L 710.620267 417.494118 
L 710.620267 417.494118 
z
" clip-path="url(#p534c875f47)" style="fill: #f7fcf5; stroke: #f7fcf5"/>
    <path d="M 236.948719 431.636253 
L 265.23299 431.636253 
L 265.23299 403.351982 
L 236.948719 403.351982 
z
" clip-path="url(#p534c875f47)" style="fill: #00441b; stroke: #00441b"/>
    <path d="M 171.30166 431.636253 
L 199.585932 431.636253 
L 199.585932 403.351982 
L 171.30166 403.351982 
z
" clip-path="url(#p534c875f47)" style="fill: #00441b; stroke: #00441b"/>
    <path d="M 204.12519 431.636253 
L 232.409461 431.636253 
L 232.409461 403.351982 
L 204.12519 403.351982 
z
" clip-path="url(#p534c875f47)" style="fill: #00441b; stroke: #00441b"/>
    <path d="M 270.335909 431.072593 
L 297.49286 431.072593 
L 297.49286 403.915642 
L 270.335909 403.915642 
z
" clip-path="url(#p534c875f47)" style="fill: #005e26; stroke: #005e26"/>
    <path d="M 316.737914 417.494118 
L 316.737914 417.494118 
L 316.737914 417.494118 
L 316.737914 417.494118 
z
" clip-path="url(#p534c875f47)" style="fill: #f7fcf5; stroke: #f7fcf5"/>
    <path d="M 598.118463 431.525333 
L 626.180894 431.525333 
L 626.180894 403.462902 
L 598.118463 403.462902 
z
" clip-path="url(#p534c875f47)" style="fill: #00491d; stroke: #00491d"/>
    <path d="M 630.831072 431.636253 
L 659.115343 431.636253 
L 659.115343 403.351982 
L 630.831072 403.351982 
z
" clip-path="url(#p534c875f47)" style="fill: #00441b; stroke: #00441b"/>
    <path d="M 663.821312 431.469543 
L 691.772162 431.469543 
L 691.772162 403.518693 
L 663.821312 403.518693 
z
" clip-path="url(#p534c875f47)" style="fill: #004c1e; stroke: #004c1e"/>
    <path d="M 565.184013 431.636253 
L 593.468285 431.636253 
L 593.468285 403.351982 
L 565.184013 403.351982 
z
" clip-path="url(#p534c875f47)" style="fill: #00441b; stroke: #00441b"/>
    <path d="M 532.360484 431.636253 
L 560.644755 431.636253 
L 560.644755 403.351982 
L 532.360484 403.351982 
z
" clip-path="url(#p534c875f47)" style="fill: #00441b; stroke: #00441b"/>
    <path d="M 401.066366 431.636253 
L 429.350637 431.636253 
L 429.350637 403.351982 
L 401.066366 403.351982 
z
" clip-path="url(#p534c875f47)" style="fill: #00441b; stroke: #00441b"/>
    <path d="M 433.889896 431.636253 
L 462.174167 431.636253 
L 462.174167 403.351982 
L 433.889896 403.351982 
z
" clip-path="url(#p534c875f47)" style="fill: #00441b; stroke: #00441b"/>
    <path d="M 335.754742 431.300819 
L 363.368144 431.300819 
L 363.368144 403.687416 
L 335.754742 403.687416 
z
" clip-path="url(#p534c875f47)" style="fill: #005321; stroke: #005321"/>
    <path d="M 466.880136 431.469543 
L 494.830986 431.469543 
L 494.830986 403.518693 
L 466.880136 403.518693 
z
" clip-path="url(#p534c875f47)" style="fill: #004c1e; stroke: #004c1e"/>
    <path d="M 513.67909 417.494118 
L 513.67909 417.494118 
L 513.67909 417.494118 
L 513.67909 417.494118 
z
" clip-path="url(#p534c875f47)" style="fill: #f7fcf5; stroke: #f7fcf5"/>
    <path d="M 368.242837 431.636253 
L 396.527108 431.636253 
L 396.527108 403.351982 
L 368.242837 403.351982 
z
" clip-path="url(#p534c875f47)" style="fill: #00441b; stroke: #00441b"/>
    <path d="M 710.620267 384.670588 
L 710.620267 384.670588 
L 710.620267 384.670588 
L 710.620267 384.670588 
z
" clip-path="url(#p534c875f47)" style="fill: #f7fcf5; stroke: #f7fcf5"/>
    <path d="M 236.948719 398.812724 
L 265.23299 398.812724 
L 265.23299 370.528453 
L 236.948719 370.528453 
z
" clip-path="url(#p534c875f47)" style="fill: #00441b; stroke: #00441b"/>
    <path d="M 171.30166 398.812724 
L 199.585932 398.812724 
L 199.585932 370.528453 
L 171.30166 370.528453 
z
" clip-path="url(#p534c875f47)" style="fill: #00441b; stroke: #00441b"/>
    <path d="M 204.12519 398.812724 
L 232.409461 398.812724 
L 232.409461 370.528453 
L 204.12519 370.528453 
z
" clip-path="url(#p534c875f47)" style="fill: #00441b; stroke: #00441b"/>
    <path d="M 270.22132 398.363652 
L 297.607448 398.363652 
L 297.607448 370.977524 
L 270.22132 370.977524 
z
" clip-path="url(#p534c875f47)" style="fill: #005924; stroke: #005924"/>
    <path d="M 310.123535 391.284967 
L 323.352292 391.284967 
L 323.352292 378.05621 
L 310.123535 378.05621 
z
" clip-path="url(#p534c875f47)" style="fill: #cfecc9; stroke: #cfecc9"/>
    <path d="M 599.40213 397.418137 
L 624.897227 397.418137 
L 624.897227 371.923039 
L 599.40213 371.923039 
z
" clip-path="url(#p534c875f47)" style="fill: #127c39; stroke: #127c39"/>
    <path d="M 631.166506 398.47729 
L 658.779909 398.47729 
L 658.779909 370.863887 
L 631.166506 370.863887 
z
" clip-path="url(#p534c875f47)" style="fill: #005321; stroke: #005321"/>
    <path d="M 664.509055 397.958271 
L 691.084419 397.958271 
L 691.084419 371.382906 
L 664.509055 371.382906 
z
" clip-path="url(#p534c875f47)" style="fill: #006b2b; stroke: #006b2b"/>
    <path d="M 565.184013 398.812724 
L 593.468285 398.812724 
L 593.468285 370.528453 
L 565.184013 370.528453 
z
" clip-path="url(#p534c875f47)" style="fill: #00441b; stroke: #00441b"/>
    <path d="M 532.360484 398.812724 
L 560.644755 398.812724 
L 560.644755 370.528453 
L 532.360484 370.528453 
z
" clip-path="url(#p534c875f47)" style="fill: #00441b; stroke: #00441b"/>
    <path d="M 401.066366 398.812724 
L 429.350637 398.812724 
L 429.350637 370.528453 
L 401.066366 370.528453 
z
" clip-path="url(#p534c875f47)" style="fill: #00441b; stroke: #00441b"/>
    <path d="M 433.889896 398.812724 
L 462.174167 398.812724 
L 462.174167 370.528453 
L 433.889896 370.528453 
z
" clip-path="url(#p534c875f47)" style="fill: #00441b; stroke: #00441b"/>
    <path d="M 335.586018 398.646013 
L 363.536868 398.646013 
L 363.536868 370.695163 
L 335.586018 370.695163 
z
" clip-path="url(#p534c875f47)" style="fill: #004c1e; stroke: #004c1e"/>
    <path d="M 468.231179 397.294969 
L 493.479942 397.294969 
L 493.479942 372.046207 
L 468.231179 372.046207 
z
" clip-path="url(#p534c875f47)" style="fill: #16803c; stroke: #16803c"/>
    <path d="M 513.67909 384.670588 
L 513.67909 384.670588 
L 513.67909 384.670588 
L 513.67909 384.670588 
z
" clip-path="url(#p534c875f47)" style="fill: #f7fcf5; stroke: #f7fcf5"/>
    <path d="M 368.242837 398.812724 
L 396.527108 398.812724 
L 396.527108 370.528453 
L 368.242837 370.528453 
z
" clip-path="url(#p534c875f47)" style="fill: #00441b; stroke: #00441b"/>
    <path d="M 710.620267 56.435294 
L 710.620267 56.435294 
L 710.620267 56.435294 
L 710.620267 56.435294 
z
" clip-path="url(#p534c875f47)" style="fill: #f7fcf5; stroke: #f7fcf5"/>
    <path d="M 236.948719 70.57743 
L 265.23299 70.57743 
L 265.23299 42.293158 
L 236.948719 42.293158 
z
" clip-path="url(#p534c875f47)" style="fill: #00441b; stroke: #00441b"/>
    <path d="M 171.30166 70.57743 
L 199.585932 70.57743 
L 199.585932 42.293158 
L 171.30166 42.293158 
z
" clip-path="url(#p534c875f47)" style="fill: #00441b; stroke: #00441b"/>
    <path d="M 204.12519 70.57743 
L 232.409461 70.57743 
L 232.409461 42.293158 
L 204.12519 42.293158 
z
" clip-path="url(#p534c875f47)" style="fill: #00441b; stroke: #00441b"/>
    <path d="M 272.121908 68.227771 
L 295.706861 68.227771 
L 295.706861 44.642818 
L 272.121908 44.642818 
z
" clip-path="url(#p534c875f47)" style="fill: #309950; stroke: #309950"/>
    <path d="M 316.737914 56.435294 
L 316.737914 56.435294 
L 316.737914 56.435294 
L 316.737914 56.435294 
z
" clip-path="url(#p534c875f47)" style="fill: #f7fcf5; stroke: #f7fcf5"/>
    <path d="M 598.007543 70.57743 
L 626.291814 70.57743 
L 626.291814 42.293158 
L 598.007543 42.293158 
z
" clip-path="url(#p534c875f47)" style="fill: #00441b; stroke: #00441b"/>
    <path d="M 630.886423 70.522079 
L 659.059992 70.522079 
L 659.059992 42.34851 
L 630.886423 42.34851 
z
" clip-path="url(#p534c875f47)" style="fill: #00471c; stroke: #00471c"/>
    <path d="M 663.709953 70.522079 
L 691.883522 70.522079 
L 691.883522 42.34851 
L 663.709953 42.34851 
z
" clip-path="url(#p534c875f47)" style="fill: #00471c; stroke: #00471c"/>
    <path d="M 565.184013 70.57743 
L 593.468285 70.57743 
L 593.468285 42.293158 
L 565.184013 42.293158 
z
" clip-path="url(#p534c875f47)" style="fill: #00441b; stroke: #00441b"/>
    <path d="M 532.360484 70.57743 
L 560.644755 70.57743 
L 560.644755 42.293158 
L 532.360484 42.293158 
z
" clip-path="url(#p534c875f47)" style="fill: #00441b; stroke: #00441b"/>
    <path d="M 401.066366 70.57743 
L 429.350637 70.57743 
L 429.350637 42.293158 
L 401.066366 42.293158 
z
" clip-path="url(#p534c875f47)" style="fill: #00441b; stroke: #00441b"/>
    <path d="M 433.889896 70.57743 
L 462.174167 70.57743 
L 462.174167 42.293158 
L 433.889896 42.293158 
z
" clip-path="url(#p534c875f47)" style="fill: #00441b; stroke: #00441b"/>
    <path d="M 335.698272 70.298465 
L 363.424614 70.298465 
L 363.424614 42.572123 
L 335.698272 42.572123 
z
" clip-path="url(#p534c875f47)" style="fill: #005120; stroke: #005120"/>
    <path d="M 466.713425 70.57743 
L 494.997696 70.57743 
L 494.997696 42.293158 
L 466.713425 42.293158 
z
" clip-path="url(#p534c875f47)" style="fill: #00441b; stroke: #00441b"/>
    <path d="M 513.67909 56.435294 
L 513.67909 56.435294 
L 513.67909 56.435294 
L 513.67909 56.435294 
z
" clip-path="url(#p534c875f47)" style="fill: #f7fcf5; stroke: #f7fcf5"/>
    <path d="M 368.409548 70.410719 
L 396.360397 70.410719 
L 396.360397 42.459869 
L 368.409548 42.459869 
z
" clip-path="url(#p534c875f47)" style="fill: #004c1e; stroke: #004c1e"/>
    <path d="M 710.620267 23.611765 
L 710.620267 23.611765 
L 710.620267 23.611765 
L 710.620267 23.611765 
z
" clip-path="url(#p534c875f47)" style="fill: #f7fcf5; stroke: #f7fcf5"/>
    <path d="M 237.512379 37.19024 
L 264.66933 37.19024 
L 264.66933 10.033289 
L 237.512379 10.033289 
z
" clip-path="url(#p534c875f47)" style="fill: #005e26; stroke: #005e26"/>
    <path d="M 172.881451 36.174109 
L 198.00614 36.174109 
L 198.00614 11.04942 
L 172.881451 11.04942 
z
" clip-path="url(#p534c875f47)" style="fill: #18823d; stroke: #18823d"/>
    <path d="M 204.404155 37.474935 
L 232.130496 37.474935 
L 232.130496 9.748594 
L 204.404155 9.748594 
z
" clip-path="url(#p534c875f47)" style="fill: #005120; stroke: #005120"/>
    <path d="M 275.075549 32.450599 
L 292.753219 32.450599 
L 292.753219 14.77293 
L 275.075549 14.77293 
z
" clip-path="url(#p534c875f47)" style="fill: #9cd797; stroke: #9cd797"/>
    <path d="M 316.737914 23.611765 
L 316.737914 23.611765 
L 316.737914 23.611765 
L 316.737914 23.611765 
z
" clip-path="url(#p534c875f47)" style="fill: #f7fcf5; stroke: #f7fcf5"/>
    <path d="M 607.819551 27.941892 
L 616.479805 27.941892 
L 616.479805 19.281638 
L 607.819551 19.281638 
z
" clip-path="url(#p534c875f47)" style="fill: #eaf7e6; stroke: #eaf7e6"/>
    <path d="M 644.973208 23.611765 
L 644.973208 23.611765 
L 644.973208 23.611765 
L 644.973208 23.611765 
z
" clip-path="url(#p534c875f47)" style="fill: #f7fcf5; stroke: #f7fcf5"/>
    <path d="M 669.046737 32.361765 
L 686.546737 32.361765 
L 686.546737 14.861765 
L 669.046737 14.861765 
z
" clip-path="url(#p534c875f47)" style="fill: #9fd899; stroke: #9fd899"/>
    <path d="M 566.038467 36.899447 
L 592.613831 36.899447 
L 592.613831 10.324082 
L 566.038467 10.324082 
z
" clip-path="url(#p534c875f47)" style="fill: #006b2b; stroke: #006b2b"/>
    <path d="M 532.866729 37.247655 
L 560.13851 37.247655 
L 560.13851 9.975875 
L 532.866729 9.975875 
z
" clip-path="url(#p534c875f47)" style="fill: #005b25; stroke: #005b25"/>
    <path d="M 401.289091 37.531176 
L 429.127913 37.531176 
L 429.127913 9.692354 
L 401.289091 9.692354 
z
" clip-path="url(#p534c875f47)" style="fill: #004e1f; stroke: #004e1f"/>
    <path d="M 434.000816 37.64298 
L 462.063246 37.64298 
L 462.063246 9.58055 
L 434.000816 9.58055 
z
" clip-path="url(#p534c875f47)" style="fill: #00491d; stroke: #00491d"/>
    <path d="M 337.637203 35.536005 
L 361.485683 35.536005 
L 361.485683 11.687525 
L 337.637203 11.687525 
z
" clip-path="url(#p534c875f47)" style="fill: #2d954d; stroke: #2d954d"/>
    <path d="M 480.855561 23.611765 
L 480.855561 23.611765 
L 480.855561 23.611765 
L 480.855561 23.611765 
z
" clip-path="url(#p534c875f47)" style="fill: #f7fcf5; stroke: #f7fcf5"/>
    <path d="M 500.158273 37.132582 
L 527.199907 37.132582 
L 527.199907 10.090947 
L 500.158273 10.090947 
z
" clip-path="url(#p534c875f47)" style="fill: #006027; stroke: #006027"/>
    <path d="M 368.409548 37.58719 
L 396.360397 37.58719 
L 396.360397 9.63634 
L 368.409548 9.63634 
z
" clip-path="url(#p534c875f47)" style="fill: #004c1e; stroke: #004c1e"/>
    <path d="M 697.041791 266.954946 
L 724.198742 266.954946 
L 724.198742 239.797995 
L 697.041791 239.797995 
z
" clip-path="url(#p534c875f47)" style="fill: #005e26; stroke: #005e26"/>
    <path d="M 236.948719 267.518606 
L 265.23299 267.518606 
L 265.23299 239.234335 
L 236.948719 239.234335 
z
" clip-path="url(#p534c875f47)" style="fill: #00441b; stroke: #00441b"/>
    <path d="M 171.357011 267.463255 
L 199.530581 267.463255 
L 199.530581 239.289686 
L 171.357011 239.289686 
z
" clip-path="url(#p534c875f47)" style="fill: #00471c; stroke: #00471c"/>
    <path d="M 204.12519 267.518606 
L 232.409461 267.518606 
L 232.409461 239.234335 
L 204.12519 239.234335 
z
" clip-path="url(#p534c875f47)" style="fill: #00441b; stroke: #00441b"/>
    <path d="M 270.568036 266.722818 
L 297.260732 266.722818 
L 297.260732 240.030123 
L 270.568036 240.030123 
z
" clip-path="url(#p534c875f47)" style="fill: #00682a; stroke: #00682a"/>
    <path d="M 307.552327 262.562057 
L 325.9235 262.562057 
L 325.9235 244.190884 
L 307.552327 244.190884 
z
" clip-path="url(#p534c875f47)" style="fill: #91d28e; stroke: #91d28e"/>
    <path d="M 598.230267 267.295881 
L 626.069089 267.295881 
L 626.069089 239.45706 
L 598.230267 239.45706 
z
" clip-path="url(#p534c875f47)" style="fill: #004e1f; stroke: #004e1f"/>
    <path d="M 630.831072 267.518606 
L 659.115343 267.518606 
L 659.115343 239.234335 
L 630.831072 239.234335 
z
" clip-path="url(#p534c875f47)" style="fill: #00441b; stroke: #00441b"/>
    <path d="M 663.654602 267.518606 
L 691.938873 267.518606 
L 691.938873 239.234335 
L 663.654602 239.234335 
z
" clip-path="url(#p534c875f47)" style="fill: #00441b; stroke: #00441b"/>
    <path d="M 565.184013 267.518606 
L 593.468285 267.518606 
L 593.468285 239.234335 
L 565.184013 239.234335 
z
" clip-path="url(#p534c875f47)" style="fill: #00441b; stroke: #00441b"/>
    <path d="M 532.360484 267.518606 
L 560.644755 267.518606 
L 560.644755 239.234335 
L 532.360484 239.234335 
z
" clip-path="url(#p534c875f47)" style="fill: #00441b; stroke: #00441b"/>
    <path d="M 401.121717 267.463255 
L 429.295286 267.463255 
L 429.295286 239.289686 
L 401.121717 239.289686 
z
" clip-path="url(#p534c875f47)" style="fill: #00471c; stroke: #00471c"/>
    <path d="M 433.889896 267.518606 
L 462.174167 267.518606 
L 462.174167 239.234335 
L 433.889896 239.234335 
z
" clip-path="url(#p534c875f47)" style="fill: #00441b; stroke: #00441b"/>
    <path d="M 335.586018 267.351895 
L 363.536868 267.351895 
L 363.536868 239.401046 
L 335.586018 239.401046 
z
" clip-path="url(#p534c875f47)" style="fill: #004c1e; stroke: #004c1e"/>
    <path d="M 466.713425 267.518606 
L 494.997696 267.518606 
L 494.997696 239.234335 
L 466.713425 239.234335 
z
" clip-path="url(#p534c875f47)" style="fill: #00441b; stroke: #00441b"/>
    <path d="M 513.67909 253.376471 
L 513.67909 253.376471 
L 513.67909 253.376471 
L 513.67909 253.376471 
z
" clip-path="url(#p534c875f47)" style="fill: #f7fcf5; stroke: #f7fcf5"/>
    <path d="M 368.691908 267.069535 
L 396.078036 267.069535 
L 396.078036 239.683407 
L 368.691908 239.683407 
z
" clip-path="url(#p534c875f47)" style="fill: #005924; stroke: #005924"/>
    <path d="M 704.892047 226.281161 
L 716.348486 226.281161 
L 716.348486 214.824722 
L 704.892047 214.824722 
z
" clip-path="url(#p534c875f47)" style="fill: #dcf2d7; stroke: #dcf2d7"/>
    <path d="M 239.364815 232.278981 
L 262.816894 232.278981 
L 262.816894 208.826902 
L 239.364815 208.826902 
z
" clip-path="url(#p534c875f47)" style="fill: #329b51; stroke: #329b51"/>
    <path d="M 172.333685 233.663052 
L 198.553907 233.663052 
L 198.553907 207.442831 
L 172.333685 207.442831 
z
" clip-path="url(#p534c875f47)" style="fill: #05712f; stroke: #05712f"/>
    <path d="M 206.277747 232.54252 
L 230.256904 232.54252 
L 230.256904 208.563362 
L 206.277747 208.563362 
z
" clip-path="url(#p534c875f47)" style="fill: #2b934b; stroke: #2b934b"/>
    <path d="M 283.914384 220.552941 
L 283.914384 220.552941 
L 283.914384 220.552941 
L 283.914384 220.552941 
z
" clip-path="url(#p534c875f47)" style="fill: #f7fcf5; stroke: #f7fcf5"/>
    <path d="M 316.737914 220.552941 
L 316.737914 220.552941 
L 316.737914 220.552941 
L 316.737914 220.552941 
z
" clip-path="url(#p534c875f47)" style="fill: #f7fcf5; stroke: #f7fcf5"/>
    <path d="M 612.149678 220.552941 
L 612.149678 220.552941 
L 612.149678 220.552941 
L 612.149678 220.552941 
z
" clip-path="url(#p534c875f47)" style="fill: #f7fcf5; stroke: #f7fcf5"/>
    <path d="M 644.973208 220.552941 
L 644.973208 220.552941 
L 644.973208 220.552941 
L 644.973208 220.552941 
z
" clip-path="url(#p534c875f47)" style="fill: #f7fcf5; stroke: #f7fcf5"/>
    <path d="M 677.796737 220.552941 
L 677.796737 220.552941 
L 677.796737 220.552941 
L 677.796737 220.552941 
z
" clip-path="url(#p534c875f47)" style="fill: #f7fcf5; stroke: #f7fcf5"/>
    <path d="M 567.86971 232.00938 
L 590.782588 232.00938 
L 590.782588 209.096502 
L 567.86971 209.096502 
z
" clip-path="url(#p534c875f47)" style="fill: #3aa357; stroke: #3aa357"/>
    <path d="M 534.002619 233.052941 
L 559.002619 233.052941 
L 559.002619 208.052941 
L 534.002619 208.052941 
z
" clip-path="url(#p534c875f47)" style="fill: #1a843f; stroke: #1a843f"/>
    <path d="M 404.028162 231.733281 
L 426.388842 231.733281 
L 426.388842 209.372601 
L 404.028162 209.372601 
z
" clip-path="url(#p534c875f47)" style="fill: #42ab5d; stroke: #42ab5d"/>
    <path d="M 437.063326 231.521647 
L 459.000737 231.521647 
L 459.000737 209.584236 
L 437.063326 209.584236 
z
" clip-path="url(#p534c875f47)" style="fill: #4bb062; stroke: #4bb062"/>
    <path d="M 343.066252 227.048132 
L 356.056634 227.048132 
L 356.056634 214.057751 
L 343.066252 214.057751 
z
" clip-path="url(#p534c875f47)" style="fill: #d1edcb; stroke: #d1edcb"/>
    <path d="M 480.855561 220.552941 
L 480.855561 220.552941 
L 480.855561 220.552941 
L 480.855561 220.552941 
z
" clip-path="url(#p534c875f47)" style="fill: #f7fcf5; stroke: #f7fcf5"/>
    <path d="M 503.996632 230.2354 
L 523.361548 230.2354 
L 523.361548 210.870483 
L 503.996632 210.870483 
z
" clip-path="url(#p534c875f47)" style="fill: #80ca80; stroke: #80ca80"/>
    <path d="M 371.559655 231.378259 
L 393.21029 231.378259 
L 393.21029 209.727624 
L 371.559655 209.727624 
z
" clip-path="url(#p534c875f47)" style="fill: #52b365; stroke: #52b365"/>
    <path d="M 710.620267 187.729412 
L 710.620267 187.729412 
L 710.620267 187.729412 
L 710.620267 187.729412 
z
" clip-path="url(#p534c875f47)" style="fill: #f7fcf5; stroke: #f7fcf5"/>
    <path d="M 236.948719 201.871547 
L 265.23299 201.871547 
L 265.23299 173.587276 
L 236.948719 173.587276 
z
" clip-path="url(#p534c875f47)" style="fill: #00441b; stroke: #00441b"/>
    <path d="M 171.30166 201.871547 
L 199.585932 201.871547 
L 199.585932 173.587276 
L 171.30166 173.587276 
z
" clip-path="url(#p534c875f47)" style="fill: #00441b; stroke: #00441b"/>
    <path d="M 204.12519 201.871547 
L 232.409461 201.871547 
L 232.409461 173.587276 
L 204.12519 173.587276 
z
" clip-path="url(#p534c875f47)" style="fill: #00441b; stroke: #00441b"/>
    <path d="M 271.859821 199.783975 
L 295.968948 199.783975 
L 295.968948 175.674848 
L 271.859821 175.674848 
z
" clip-path="url(#p534c875f47)" style="fill: #29914a; stroke: #29914a"/>
    <path d="M 316.737914 187.729412 
L 316.737914 187.729412 
L 316.737914 187.729412 
L 316.737914 187.729412 
z
" clip-path="url(#p534c875f47)" style="fill: #f7fcf5; stroke: #f7fcf5"/>
    <path d="M 599.712335 200.166755 
L 624.587021 200.166755 
L 624.587021 175.292069 
L 599.712335 175.292069 
z
" clip-path="url(#p534c875f47)" style="fill: #1d8640; stroke: #1d8640"/>
    <path d="M 631.863097 200.839522 
L 658.083318 200.839522 
L 658.083318 174.619301 
L 631.863097 174.619301 
z
" clip-path="url(#p534c875f47)" style="fill: #05712f; stroke: #05712f"/>
    <path d="M 665.613244 199.912905 
L 689.98023 199.912905 
L 689.98023 175.545919 
L 665.613244 175.545919 
z
" clip-path="url(#p534c875f47)" style="fill: #258d47; stroke: #258d47"/>
    <path d="M 565.184013 201.871547 
L 593.468285 201.871547 
L 593.468285 173.587276 
L 565.184013 173.587276 
z
" clip-path="url(#p534c875f47)" style="fill: #00441b; stroke: #00441b"/>
    <path d="M 532.360484 201.871547 
L 560.644755 201.871547 
L 560.644755 173.587276 
L 532.360484 173.587276 
z
" clip-path="url(#p534c875f47)" style="fill: #00441b; stroke: #00441b"/>
    <path d="M 401.233077 201.704837 
L 429.183927 201.704837 
L 429.183927 173.753987 
L 401.233077 173.753987 
z
" clip-path="url(#p534c875f47)" style="fill: #004c1e; stroke: #004c1e"/>
    <path d="M 434.000816 201.760627 
L 462.063246 201.760627 
L 462.063246 173.698197 
L 434.000816 173.698197 
z
" clip-path="url(#p534c875f47)" style="fill: #00491d; stroke: #00491d"/>
    <path d="M 336.215095 201.07576 
L 362.907791 201.07576 
L 362.907791 174.383064 
L 336.215095 174.383064 
z
" clip-path="url(#p534c875f47)" style="fill: #00682a; stroke: #00682a"/>
    <path d="M 468.169446 200.415526 
L 493.541675 200.415526 
L 493.541675 175.043297 
L 468.169446 175.043297 
z
" clip-path="url(#p534c875f47)" style="fill: #147e3a; stroke: #147e3a"/>
    <path d="M 513.67909 187.729412 
L 513.67909 187.729412 
L 513.67909 187.729412 
L 513.67909 187.729412 
z
" clip-path="url(#p534c875f47)" style="fill: #f7fcf5; stroke: #f7fcf5"/>
    <path d="M 368.465562 201.648823 
L 396.304383 201.648823 
L 396.304383 173.810001 
L 368.465562 173.810001 
z
" clip-path="url(#p534c875f47)" style="fill: #004e1f; stroke: #004e1f"/>
    <path d="M 710.620267 154.905882 
L 710.620267 154.905882 
L 710.620267 154.905882 
L 710.620267 154.905882 
z
" clip-path="url(#p534c875f47)" style="fill: #f7fcf5; stroke: #f7fcf5"/>
    <path d="M 236.948719 169.048018 
L 265.23299 169.048018 
L 265.23299 140.763747 
L 236.948719 140.763747 
z
" clip-path="url(#p534c875f47)" style="fill: #00441b; stroke: #00441b"/>
    <path d="M 171.412581 168.937098 
L 199.475011 168.937098 
L 199.475011 140.874667 
L 171.412581 140.874667 
z
" clip-path="url(#p534c875f47)" style="fill: #00491d; stroke: #00491d"/>
    <path d="M 204.12519 169.048018 
L 232.409461 169.048018 
L 232.409461 140.763747 
L 204.12519 140.763747 
z
" clip-path="url(#p534c875f47)" style="fill: #00441b; stroke: #00441b"/>
    <path d="M 270.107683 168.712584 
L 297.721085 168.712584 
L 297.721085 141.099181 
L 270.107683 141.099181 
z
" clip-path="url(#p534c875f47)" style="fill: #005321; stroke: #005321"/>
    <path d="M 307.899079 163.744717 
L 325.576748 163.744717 
L 325.576748 146.067048 
L 307.899079 146.067048 
z
" clip-path="url(#p534c875f47)" style="fill: #9cd797; stroke: #9cd797"/>
    <path d="M 599.463564 167.591997 
L 624.835793 167.591997 
L 624.835793 142.219768 
L 599.463564 142.219768 
z
" clip-path="url(#p534c875f47)" style="fill: #147e3a; stroke: #147e3a"/>
    <path d="M 631.110037 168.769053 
L 658.836378 168.769053 
L 658.836378 141.042712 
L 631.110037 141.042712 
z
" clip-path="url(#p534c875f47)" style="fill: #005120; stroke: #005120"/>
    <path d="M 664.806356 167.896263 
L 690.787118 167.896263 
L 690.787118 141.915501 
L 664.806356 141.915501 
z
" clip-path="url(#p534c875f47)" style="fill: #097532; stroke: #097532"/>
    <path d="M 565.184013 169.048018 
L 593.468285 169.048018 
L 593.468285 140.763747 
L 565.184013 140.763747 
z
" clip-path="url(#p534c875f47)" style="fill: #00441b; stroke: #00441b"/>
    <path d="M 532.360484 169.048018 
L 560.644755 169.048018 
L 560.644755 140.763747 
L 532.360484 140.763747 
z
" clip-path="url(#p534c875f47)" style="fill: #00441b; stroke: #00441b"/>
    <path d="M 401.066366 169.048018 
L 429.350637 169.048018 
L 429.350637 140.763747 
L 401.066366 140.763747 
z
" clip-path="url(#p534c875f47)" style="fill: #00441b; stroke: #00441b"/>
    <path d="M 433.889896 169.048018 
L 462.174167 169.048018 
L 462.174167 140.763747 
L 433.889896 140.763747 
z
" clip-path="url(#p534c875f47)" style="fill: #00441b; stroke: #00441b"/>
    <path d="M 335.642032 168.825293 
L 363.480854 168.825293 
L 363.480854 140.986471 
L 335.642032 140.986471 
z
" clip-path="url(#p534c875f47)" style="fill: #004e1f; stroke: #004e1f"/>
    <path d="M 468.355561 167.405882 
L 493.355561 167.405882 
L 493.355561 142.405882 
L 468.355561 142.405882 
z
" clip-path="url(#p534c875f47)" style="fill: #1a843f; stroke: #1a843f"/>
    <path d="M 507.555366 161.029607 
L 519.802814 161.029607 
L 519.802814 148.782158 
L 507.555366 148.782158 
z
" clip-path="url(#p534c875f47)" style="fill: #d7efd1; stroke: #d7efd1"/>
    <path d="M 368.242837 169.048018 
L 396.527108 169.048018 
L 396.527108 140.763747 
L 368.242837 140.763747 
z
" clip-path="url(#p534c875f47)" style="fill: #00441b; stroke: #00441b"/>
    <path d="M 710.620267 286.2 
L 710.620267 286.2 
L 710.620267 286.2 
L 710.620267 286.2 
z
" clip-path="url(#p534c875f47)" style="fill: #f7fcf5; stroke: #f7fcf5"/>
    <path d="M 237.05964 300.231215 
L 265.12207 300.231215 
L 265.12207 272.168785 
L 237.05964 272.168785 
z
" clip-path="url(#p534c875f47)" style="fill: #00491d; stroke: #00491d"/>
    <path d="M 171.580625 300.063171 
L 199.306967 300.063171 
L 199.306967 272.336829 
L 171.580625 272.336829 
z
" clip-path="url(#p534c875f47)" style="fill: #005120; stroke: #005120"/>
    <path d="M 204.291901 300.175425 
L 232.24275 300.175425 
L 232.24275 272.224575 
L 204.291901 272.224575 
z
" clip-path="url(#p534c875f47)" style="fill: #004c1e; stroke: #004c1e"/>
    <path d="M 275.164384 294.95 
L 292.664384 294.95 
L 292.664384 277.45 
L 275.164384 277.45 
z
" clip-path="url(#p534c875f47)" style="fill: #9fd899; stroke: #9fd899"/>
    <path d="M 316.737914 286.2 
L 316.737914 286.2 
L 316.737914 286.2 
L 316.737914 286.2 
z
" clip-path="url(#p534c875f47)" style="fill: #f7fcf5; stroke: #f7fcf5"/>
    <path d="M 599.966185 298.383493 
L 624.333171 298.383493 
L 624.333171 274.016507 
L 599.966185 274.016507 
z
" clip-path="url(#p534c875f47)" style="fill: #258d47; stroke: #258d47"/>
    <path d="M 634.440521 296.732687 
L 655.505895 296.732687 
L 655.505895 275.667313 
L 634.440521 275.667313 
z
" clip-path="url(#p534c875f47)" style="fill: #5eb96b; stroke: #5eb96b"/>
    <path d="M 667.043831 296.952907 
L 688.549644 296.952907 
L 688.549644 275.447093 
L 667.043831 275.447093 
z
" clip-path="url(#p534c875f47)" style="fill: #55b567; stroke: #55b567"/>
    <path d="M 565.519448 300.006701 
L 593.13285 300.006701 
L 593.13285 272.393299 
L 565.519448 272.393299 
z
" clip-path="url(#p534c875f47)" style="fill: #005321; stroke: #005321"/>
    <path d="M 532.415835 300.286785 
L 560.589404 300.286785 
L 560.589404 272.113215 
L 532.415835 272.113215 
z
" clip-path="url(#p534c875f47)" style="fill: #00471c; stroke: #00471c"/>
    <path d="M 401.289091 300.119411 
L 429.127913 300.119411 
L 429.127913 272.280589 
L 401.289091 272.280589 
z
" clip-path="url(#p534c875f47)" style="fill: #004e1f; stroke: #004e1f"/>
    <path d="M 434.168861 300.063171 
L 461.895202 300.063171 
L 461.895202 272.336829 
L 434.168861 272.336829 
z
" clip-path="url(#p534c875f47)" style="fill: #005120; stroke: #005120"/>
    <path d="M 337.96942 297.792023 
L 361.153466 297.792023 
L 361.153466 274.607977 
L 337.96942 274.607977 
z
" clip-path="url(#p534c875f47)" style="fill: #369f54; stroke: #369f54"/>
    <path d="M 468.608112 298.447449 
L 493.103009 298.447449 
L 493.103009 273.952551 
L 468.608112 273.952551 
z
" clip-path="url(#p534c875f47)" style="fill: #238b45; stroke: #238b45"/>
    <path d="M 513.67909 286.2 
L 513.67909 286.2 
L 513.67909 286.2 
L 513.67909 286.2 
z
" clip-path="url(#p534c875f47)" style="fill: #f7fcf5; stroke: #f7fcf5"/>
    <path d="M 368.691908 299.893064 
L 396.078036 299.893064 
L 396.078036 272.506936 
L 368.691908 272.506936 
z
" clip-path="url(#p534c875f47)" style="fill: #005924; stroke: #005924"/>
    <path d="M 701.182974 328.460822 
L 720.05756 328.460822 
L 720.05756 309.586236 
L 701.182974 309.586236 
z
" clip-path="url(#p534c875f47)" style="fill: #88ce87; stroke: #88ce87"/>
    <path d="M 239.702813 330.411571 
L 262.478897 330.411571 
L 262.478897 307.635487 
L 239.702813 307.635487 
z
" clip-path="url(#p534c875f47)" style="fill: #3ca559; stroke: #3ca559"/>
    <path d="M 173.919365 330.54796 
L 196.968227 330.54796 
L 196.968227 307.499099 
L 173.919365 307.499099 
z
" clip-path="url(#p534c875f47)" style="fill: #38a156; stroke: #38a156"/>
    <path d="M 206.810886 330.479969 
L 229.723765 330.479969 
L 229.723765 307.56709 
L 206.810886 307.56709 
z
" clip-path="url(#p534c875f47)" style="fill: #3aa357; stroke: #3aa357"/>
    <path d="M 275.910479 327.027435 
L 291.918289 327.027435 
L 291.918289 311.019624 
L 275.910479 311.019624 
z
" clip-path="url(#p534c875f47)" style="fill: #b2e0ac; stroke: #b2e0ac"/>
    <path d="M 316.737914 319.023529 
L 316.737914 319.023529 
L 316.737914 319.023529 
L 316.737914 319.023529 
z
" clip-path="url(#p534c875f47)" style="fill: #f7fcf5; stroke: #f7fcf5"/>
    <path d="M 601.180973 329.992235 
L 623.118384 329.992235 
L 623.118384 308.054824 
L 601.180973 308.054824 
z
" clip-path="url(#p534c875f47)" style="fill: #4bb062; stroke: #4bb062"/>
    <path d="M 633.516768 330.479969 
L 656.429647 330.479969 
L 656.429647 307.56709 
L 633.516768 307.56709 
z
" clip-path="url(#p534c875f47)" style="fill: #3aa357; stroke: #3aa357"/>
    <path d="M 666.757036 330.06323 
L 688.836438 330.06323 
L 688.836438 307.983828 
L 666.757036 307.983828 
z
" clip-path="url(#p534c875f47)" style="fill: #48ae60; stroke: #48ae60"/>
    <path d="M 567.938107 330.411571 
L 590.714191 330.411571 
L 590.714191 307.635487 
L 567.938107 307.635487 
z
" clip-path="url(#p534c875f47)" style="fill: #3ca559; stroke: #3ca559"/>
    <path d="M 535.114578 330.411571 
L 557.890661 330.411571 
L 557.890661 307.635487 
L 535.114578 307.635487 
z
" clip-path="url(#p534c875f47)" style="fill: #3ca559; stroke: #3ca559"/>
    <path d="M 405.053454 329.178577 
L 425.36355 329.178577 
L 425.36355 308.868481 
L 405.053454 308.868481 
z
" clip-path="url(#p534c875f47)" style="fill: #6ec173; stroke: #6ec173"/>
    <path d="M 438.269219 328.786342 
L 457.794843 328.786342 
L 457.794843 309.260717 
L 438.269219 309.260717 
z
" clip-path="url(#p534c875f47)" style="fill: #7dc87e; stroke: #7dc87e"/>
    <path d="M 338.808536 329.776436 
L 360.31435 329.776436 
L 360.31435 308.270623 
L 338.808536 308.270623 
z
" clip-path="url(#p534c875f47)" style="fill: #55b567; stroke: #55b567"/>
    <path d="M 469.745318 330.133772 
L 491.965804 330.133772 
L 491.965804 307.913286 
L 469.745318 307.913286 
z
" clip-path="url(#p534c875f47)" style="fill: #45ad5f; stroke: #45ad5f"/>
    <path d="M 513.67909 319.023529 
L 513.67909 319.023529 
L 513.67909 319.023529 
L 513.67909 319.023529 
z
" clip-path="url(#p534c875f47)" style="fill: #f7fcf5; stroke: #f7fcf5"/>
    <path d="M 374.479278 326.929224 
L 390.290667 326.929224 
L 390.290667 311.117835 
L 374.479278 311.117835 
z
" clip-path="url(#p534c875f47)" style="fill: #b5e1ae; stroke: #b5e1ae"/>
    <path d="M 697.811578 102.067512 
L 723.428955 102.067512 
L 723.428955 76.450135 
L 697.811578 76.450135 
z
" clip-path="url(#p534c875f47)" style="fill: #107a37; stroke: #107a37"/>
    <path d="M 237.00407 103.345608 
L 265.177639 103.345608 
L 265.177639 75.172039 
L 237.00407 75.172039 
z
" clip-path="url(#p534c875f47)" style="fill: #00471c; stroke: #00471c"/>
    <path d="M 171.637095 103.065525 
L 199.250497 103.065525 
L 199.250497 75.452122 
L 171.637095 75.452122 
z
" clip-path="url(#p534c875f47)" style="fill: #005321; stroke: #005321"/>
    <path d="M 204.23611 103.290039 
L 232.298541 103.290039 
L 232.298541 75.227608 
L 204.23611 75.227608 
z
" clip-path="url(#p534c875f47)" style="fill: #00491d; stroke: #00491d"/>
    <path d="M 270.685628 102.48758 
L 297.143141 102.48758 
L 297.143141 76.030067 
L 270.685628 76.030067 
z
" clip-path="url(#p534c875f47)" style="fill: #006d2c; stroke: #006d2c"/>
    <path d="M 307.811128 98.185609 
L 325.664699 98.185609 
L 325.664699 80.332038 
L 307.811128 80.332038 
z
" clip-path="url(#p534c875f47)" style="fill: #99d595; stroke: #99d595"/>
    <path d="M 598.744922 102.66358 
L 625.554435 102.66358 
L 625.554435 75.854067 
L 598.744922 75.854067 
z
" clip-path="url(#p534c875f47)" style="fill: #006529; stroke: #006529"/>
    <path d="M 630.831072 103.400959 
L 659.115343 103.400959 
L 659.115343 75.116688 
L 630.831072 75.116688 
z
" clip-path="url(#p534c875f47)" style="fill: #00441b; stroke: #00441b"/>
    <path d="M 663.654602 103.400959 
L 691.938873 103.400959 
L 691.938873 75.116688 
L 663.654602 75.116688 
z
" clip-path="url(#p534c875f47)" style="fill: #00441b; stroke: #00441b"/>
    <path d="M 565.184013 103.400959 
L 593.468285 103.400959 
L 593.468285 75.116688 
L 565.184013 75.116688 
z
" clip-path="url(#p534c875f47)" style="fill: #00441b; stroke: #00441b"/>
    <path d="M 532.360484 103.400959 
L 560.644755 103.400959 
L 560.644755 75.116688 
L 532.360484 75.116688 
z
" clip-path="url(#p534c875f47)" style="fill: #00441b; stroke: #00441b"/>
    <path d="M 401.066366 103.400959 
L 429.350637 103.400959 
L 429.350637 75.116688 
L 401.066366 75.116688 
z
" clip-path="url(#p534c875f47)" style="fill: #00441b; stroke: #00441b"/>
    <path d="M 433.945247 103.345608 
L 462.118816 103.345608 
L 462.118816 75.172039 
L 433.945247 75.172039 
z
" clip-path="url(#p534c875f47)" style="fill: #00471c; stroke: #00471c"/>
    <path d="M 335.530228 103.290039 
L 363.592658 103.290039 
L 363.592658 75.227608 
L 335.530228 75.227608 
z
" clip-path="url(#p534c875f47)" style="fill: #00491d; stroke: #00491d"/>
    <path d="M 468.293216 101.821168 
L 493.417905 101.821168 
L 493.417905 76.696479 
L 468.293216 76.696479 
z
" clip-path="url(#p534c875f47)" style="fill: #18823d; stroke: #18823d"/>
    <path d="M 500.688709 102.249205 
L 526.669471 102.249205 
L 526.669471 76.268442 
L 500.688709 76.268442 
z
" clip-path="url(#p534c875f47)" style="fill: #097532; stroke: #097532"/>
    <path d="M 368.298188 103.345608 
L 396.471757 103.345608 
L 396.471757 75.172039 
L 368.298188 75.172039 
z
" clip-path="url(#p534c875f47)" style="fill: #00471c; stroke: #00471c"/>
    <path d="M 699.940262 132.762358 
L 721.300271 132.762358 
L 721.300271 111.402348 
L 699.940262 111.402348 
z
" clip-path="url(#p534c875f47)" style="fill: #58b668; stroke: #58b668"/>
    <path d="M 237.05964 136.113568 
L 265.12207 136.113568 
L 265.12207 108.051138 
L 237.05964 108.051138 
z
" clip-path="url(#p534c875f47)" style="fill: #00491d; stroke: #00491d"/>
    <path d="M 171.637095 135.889054 
L 199.250497 135.889054 
L 199.250497 108.275652 
L 171.637095 108.275652 
z
" clip-path="url(#p534c875f47)" style="fill: #005321; stroke: #005321"/>
    <path d="M 204.23611 136.113568 
L 232.298541 136.113568 
L 232.298541 108.051138 
L 204.23611 108.051138 
z
" clip-path="url(#p534c875f47)" style="fill: #00491d; stroke: #00491d"/>
    <path d="M 270.164384 135.832353 
L 297.664384 135.832353 
L 297.664384 108.332353 
L 270.164384 108.332353 
z
" clip-path="url(#p534c875f47)" style="fill: #005622; stroke: #005622"/>
    <path d="M 316.737914 122.082353 
L 316.737914 122.082353 
L 316.737914 122.082353 
L 316.737914 122.082353 
z
" clip-path="url(#p534c875f47)" style="fill: #f7fcf5; stroke: #f7fcf5"/>
    <path d="M 598.230267 136.001764 
L 626.069089 136.001764 
L 626.069089 108.162942 
L 598.230267 108.162942 
z
" clip-path="url(#p534c875f47)" style="fill: #004e1f; stroke: #004e1f"/>
    <path d="M 630.886423 136.169138 
L 659.059992 136.169138 
L 659.059992 107.995568 
L 630.886423 107.995568 
z
" clip-path="url(#p534c875f47)" style="fill: #00471c; stroke: #00471c"/>
    <path d="M 663.821312 136.057778 
L 691.772162 136.057778 
L 691.772162 108.106928 
L 663.821312 108.106928 
z
" clip-path="url(#p534c875f47)" style="fill: #004c1e; stroke: #004c1e"/>
    <path d="M 565.184013 136.224489 
L 593.468285 136.224489 
L 593.468285 107.940217 
L 565.184013 107.940217 
z
" clip-path="url(#p534c875f47)" style="fill: #00441b; stroke: #00441b"/>
    <path d="M 532.471404 136.113568 
L 560.533835 136.113568 
L 560.533835 108.051138 
L 532.471404 108.051138 
z
" clip-path="url(#p534c875f47)" style="fill: #00491d; stroke: #00491d"/>
    <path d="M 401.066366 136.224489 
L 429.350637 136.224489 
L 429.350637 107.940217 
L 401.066366 107.940217 
z
" clip-path="url(#p534c875f47)" style="fill: #00441b; stroke: #00441b"/>
    <path d="M 433.889896 136.224489 
L 462.174167 136.224489 
L 462.174167 107.940217 
L 433.889896 107.940217 
z
" clip-path="url(#p534c875f47)" style="fill: #00441b; stroke: #00441b"/>
    <path d="M 335.698272 135.945524 
L 363.424614 135.945524 
L 363.424614 108.219182 
L 335.698272 108.219182 
z
" clip-path="url(#p534c875f47)" style="fill: #005120; stroke: #005120"/>
    <path d="M 467.105561 135.832353 
L 494.605561 135.832353 
L 494.605561 108.332353 
L 467.105561 108.332353 
z
" clip-path="url(#p534c875f47)" style="fill: #005622; stroke: #005622"/>
    <path d="M 509.002018 126.759425 
L 518.356162 126.759425 
L 518.356162 117.405281 
L 509.002018 117.405281 
z
" clip-path="url(#p534c875f47)" style="fill: #e8f6e3; stroke: #e8f6e3"/>
    <path d="M 368.409548 136.057778 
L 396.360397 136.057778 
L 396.360397 108.106928 
L 368.409548 108.106928 
z
" clip-path="url(#p534c875f47)" style="fill: #004c1e; stroke: #004c1e"/>
    <path d="M 696.478131 365.989194 
L 724.762402 365.989194 
L 724.762402 337.704923 
L 696.478131 337.704923 
z
" clip-path="url(#p534c875f47)" style="fill: #00441b; stroke: #00441b"/>
    <path d="M 236.948719 365.989194 
L 265.23299 365.989194 
L 265.23299 337.704923 
L 236.948719 337.704923 
z
" clip-path="url(#p534c875f47)" style="fill: #00441b; stroke: #00441b"/>
    <path d="M 171.30166 365.989194 
L 199.585932 365.989194 
L 199.585932 337.704923 
L 171.30166 337.704923 
z
" clip-path="url(#p534c875f47)" style="fill: #00441b; stroke: #00441b"/>
    <path d="M 204.12519 365.989194 
L 232.409461 365.989194 
L 232.409461 337.704923 
L 204.12519 337.704923 
z
" clip-path="url(#p534c875f47)" style="fill: #00441b; stroke: #00441b"/>
    <path d="M 269.772249 365.989194 
L 298.05652 365.989194 
L 298.05652 337.704923 
L 269.772249 337.704923 
z
" clip-path="url(#p534c875f47)" style="fill: #00441b; stroke: #00441b"/>
    <path d="M 302.595778 365.989194 
L 330.880049 365.989194 
L 330.880049 337.704923 
L 302.595778 337.704923 
z
" clip-path="url(#p534c875f47)" style="fill: #00441b; stroke: #00441b"/>
    <path d="M 598.007543 365.989194 
L 626.291814 365.989194 
L 626.291814 337.704923 
L 598.007543 337.704923 
z
" clip-path="url(#p534c875f47)" style="fill: #00441b; stroke: #00441b"/>
    <path d="M 630.831072 365.989194 
L 659.115343 365.989194 
L 659.115343 337.704923 
L 630.831072 337.704923 
z
" clip-path="url(#p534c875f47)" style="fill: #00441b; stroke: #00441b"/>
    <path d="M 663.654602 365.989194 
L 691.938873 365.989194 
L 691.938873 337.704923 
L 663.654602 337.704923 
z
" clip-path="url(#p534c875f47)" style="fill: #00441b; stroke: #00441b"/>
    <path d="M 565.184013 365.989194 
L 593.468285 365.989194 
L 593.468285 337.704923 
L 565.184013 337.704923 
z
" clip-path="url(#p534c875f47)" style="fill: #00441b; stroke: #00441b"/>
    <path d="M 532.360484 365.989194 
L 560.644755 365.989194 
L 560.644755 337.704923 
L 532.360484 337.704923 
z
" clip-path="url(#p534c875f47)" style="fill: #00441b; stroke: #00441b"/>
    <path d="M 401.066366 365.989194 
L 429.350637 365.989194 
L 429.350637 337.704923 
L 401.066366 337.704923 
z
" clip-path="url(#p534c875f47)" style="fill: #00441b; stroke: #00441b"/>
    <path d="M 433.889896 365.989194 
L 462.174167 365.989194 
L 462.174167 337.704923 
L 433.889896 337.704923 
z
" clip-path="url(#p534c875f47)" style="fill: #00441b; stroke: #00441b"/>
    <path d="M 335.419307 365.989194 
L 363.703579 365.989194 
L 363.703579 337.704923 
L 335.419307 337.704923 
z
" clip-path="url(#p534c875f47)" style="fill: #00441b; stroke: #00441b"/>
    <path d="M 466.713425 365.989194 
L 494.997696 365.989194 
L 494.997696 337.704923 
L 466.713425 337.704923 
z
" clip-path="url(#p534c875f47)" style="fill: #00441b; stroke: #00441b"/>
    <path d="M 499.536954 365.989194 
L 527.821226 365.989194 
L 527.821226 337.704923 
L 499.536954 337.704923 
z
" clip-path="url(#p534c875f47)" style="fill: #00441b; stroke: #00441b"/>
    <path d="M 368.242837 365.989194 
L 396.527108 365.989194 
L 396.527108 337.704923 
L 368.242837 337.704923 
z
" clip-path="url(#p534c875f47)" style="fill: #00441b; stroke: #00441b"/>
   </g>
   <g id="patch_3">
    <path d="M 169.032031 433.905882 
L 169.032031 7.2 
" style="fill: none; stroke: #ffffff; stroke-width: 1.25; stroke-linejoin: miter; stroke-linecap: square"/>
   </g>
   <g id="patch_4">
    <path d="M 727.032031 433.905882 
L 727.032031 7.2 
" style="fill: none; stroke: #ffffff; stroke-width: 1.25; stroke-linejoin: miter; stroke-linecap: square"/>
   </g>
   <g id="patch_5">
    <path d="M 169.032031 433.905882 
L 727.032031 433.905882 
" style="fill: none; stroke: #ffffff; stroke-width: 1.25; stroke-linejoin: miter; stroke-linecap: square"/>
   </g>
   <g id="patch_6">
    <path d="M 169.032031 7.2 
L 727.032031 7.2 
" style="fill: none; stroke: #ffffff; stroke-width: 1.25; stroke-linejoin: miter; stroke-linecap: square"/>
   </g>
  </g>
 </g>
 <defs>
  <clipPath id="p534c875f47">
   <rect x="169.032031" y="7.2" width="558" height="426.705882"/>
  </clipPath>
 </defs>
</svg>
